<svg version="1.1" xmlns="http://www.w3.org/2000/svg" viewBox="0 0 1260.3731398809525 986.3816964285712" width="2520.746279761905" height="1972.7633928571424">
  <!-- svg-source:excalidraw -->
  
  <defs>
    <style>
      @font-face {
        font-family: "Virgil";
        src: url("https://excalidraw.com/Virgil.woff2");
      }
      @font-face {
        font-family: "Cascadia";
        src: url("https://excalidraw.com/Cascadia.woff2");
      }
    </style>
  </defs>
  <rect x="0" y="0" width="1260.3731398809525" height="986.3816964285712" fill="#ffffff"></rect><g stroke-linecap="round" transform="translate(272.4434523809524 10) rotate(0 488.96484375000006 328.11104910714283)"><path d="M163.49 -3.13 L832.2 2.96 L882.45 8.84 L903.55 14.35 L925.22 32.72 L942.97 51.45 L963.04 79.86 L971.25 109.74 L977.92 140.45 L978.71 510.93 L971.01 567.22 L961.25 576.96 L948.93 605.22 L924.33 622.17 L898.97 640.35 L870.98 647.77 L810.06 657.66 L141.23 654.41 L91.35 644.61 L67.62 631.13 L50.58 623.88 L31.95 602.6 L17.99 582.12 L3.11 546.64 L4.17 513.99 L-3.24 161.73 L0.03 127.84 L9.44 89.26 L13.47 78.87 L30 49.83 L52.63 29.14 L80.05 13.23 L108.4 9.14 L168.05 -1.01" stroke="none" stroke-width="0" fill="#eee"></path><path d="M164.06 0 M164.06 0 C424.05 -2.18, 680.69 -0.68, 813.87 0 M164.06 0 C355.98 -0.72, 548.46 -0.14, 813.87 0 M813.87 0 C921.45 -1.66, 977.86 55.06, 977.93 164.06 M813.87 0 C926.22 -0.99, 978.23 55.25, 977.93 164.06 M977.93 164.06 C975.75 292.96, 977.17 423.57, 977.93 492.17 M977.93 164.06 C976.22 255.09, 977.02 347.95, 977.93 492.17 M977.93 492.17 C977.11 602.05, 925.23 656.83, 813.87 656.22 M977.93 492.17 C977.4 599.62, 927.14 659.44, 813.87 656.22 M813.87 656.22 C560.7 657.18, 310.47 656.7, 164.06 656.22 M813.87 656.22 C598.83 659.72, 383.55 659.25, 164.06 656.22 M164.06 656.22 C54.29 657.47, 3.36 602.89, 0 492.17 M164.06 656.22 C55.85 651.9, 3.93 599.68, 0 492.17 M0 492.17 C0.11 412.98, 0.08 338.36, 0 164.06 M0 492.17 C-2.59 385.54, -1.96 276.83, 0 164.06 M0 164.06 C3.87 50.87, 56.74 -0.16, 164.06 0 M0 164.06 C3.7 51.29, 58.61 -0.26, 164.06 0" stroke="#495057" stroke-width="2" fill="none"></path></g><g stroke-opacity="0.6" fill-opacity="0.6" stroke-linecap="round" transform="translate(501.3353794642858 476.7700892857141) rotate(0 80.7890625 27.03125)"><path d="M12.74 1.16 L152.38 0.14 L159.78 2.54 L160.97 11.01 L158.96 46.23 L156.86 53.32 L147.61 54.78 L7.92 51.35 L2.61 48.23 L1.88 45.35 L-0.12 9.49 L3.1 5.73 L4.43 0.58 L12.81 0.08" stroke="none" stroke-width="0" fill="#fab005"></path><path d="M13.52 0 M13.52 0 C59.14 -0.2, 102.74 0.82, 148.06 0 M13.52 0 C48.97 0.44, 85.23 0.25, 148.06 0 M148.06 0 C158.06 1.72, 160.25 3.87, 161.58 13.52 M148.06 0 C159.1 1.12, 159.71 3.17, 161.58 13.52 M161.58 13.52 C160.22 18.63, 162.39 25.6, 161.58 40.55 M161.58 13.52 C162.25 19.52, 161.65 27.77, 161.58 40.55 M161.58 40.55 C163.58 49.05, 159.04 53.88, 148.06 54.06 M161.58 40.55 C162.57 51.19, 157.17 52.5, 148.06 54.06 M148.06 54.06 C94.91 54.29, 41.32 55.82, 13.52 54.06 M148.06 54.06 C96.7 53.6, 46.03 53.29, 13.52 54.06 M13.52 54.06 C4.64 54.31, 1.94 49.32, 0 40.55 M13.52 54.06 C3.4 52.69, -1.1 49.38, 0 40.55 M0 40.55 C-0.3 32.79, -0.92 26.75, 0 13.52 M0 40.55 C0.55 31.63, -0.06 21.99, 0 13.52 M0 13.52 C1.69 5.9, 6.27 -1.66, 13.52 0 M0 13.52 C0.74 3.01, 3.49 1.26, 13.52 0" stroke="#000000" stroke-width="1" fill="none"></path></g><g transform="translate(536.7455357142858 486.6021205357141) rotate(0 41 17)"><text x="41" y="27" font-family="Cascadia, Segoe UI Emoji" font-size="28px" fill="#000000" text-anchor="middle" style="white-space: pre;" direction="ltr">State</text></g><g stroke-opacity="0.6" fill-opacity="0.6" stroke-linecap="round" transform="translate(522.4228050595239 295.08928571428544) rotate(0 164.046875 27.03125)"><path d="M15.1 -0.84 L317.35 0.87 L322.94 3.15 L327.81 8.76 L327.43 44.43 L325.03 48.82 L321.2 52.67 L316.24 55.7 L10.02 52.99 L6.48 52.62 L0 45.13 L-0.71 13.59 L1.52 6.26 L1.47 4.1 L6.12 0.26 L13.05 -0.68" stroke="none" stroke-width="0" fill="#228be6"></path><path d="M13.52 0 M13.52 0 C130.13 0.93, 246.8 1.45, 314.58 0 M13.52 0 C130.34 1.06, 245.28 0.28, 314.58 0 M314.58 0 C322.32 1.12, 327.69 3, 328.09 13.52 M314.58 0 C322.12 0.77, 327.29 3.31, 328.09 13.52 M328.09 13.52 C326.54 22.16, 329.63 32.71, 328.09 40.55 M328.09 13.52 C328.79 21.65, 328.4 27.69, 328.09 40.55 M328.09 40.55 C330.04 49.46, 323.73 54.37, 314.58 54.06 M328.09 40.55 C328.25 49.75, 325.5 55.94, 314.58 54.06 M314.58 54.06 C237.88 54.97, 160.6 54.12, 13.52 54.06 M314.58 54.06 C220.18 53.36, 126.14 53.74, 13.52 54.06 M13.52 54.06 C3.83 53.65, -0.59 49.2, 0 40.55 M13.52 54.06 C3.86 52.94, 0.7 50.38, 0 40.55 M0 40.55 C0.27 32.76, -0.87 27.13, 0 13.52 M0 40.55 C0.08 29.9, -0.68 21.09, 0 13.52 M0 13.52 C-1.48 5.13, 3.68 1.45, 13.52 0 M0 13.52 C0.95 3.72, 5.73 -2.12, 13.52 0" stroke="#000000" stroke-width="1" fill="none"></path></g><g transform="translate(630.3876488095239 304.79631696428544) rotate(0 57.5 17)"><text x="57.5" y="27" font-family="Cascadia, Segoe UI Emoji" font-size="28px" fill="#000000" text-anchor="middle" style="white-space: pre;" direction="ltr">Reducer</text></g><g stroke-linecap="round"><g transform="translate(582.1395884564188 364.19977678571405) rotate(0 1.4668654968760393 52.509804806209104)"><path d="M0.34 0.7 C1.16 18.22, 3.21 87.88, 3.88 105 M-0.94 0.01 C-0.21 17.18, 2.02 85.75, 2.78 103.11" stroke="#e67700" stroke-width="4" fill="none"></path></g><g transform="translate(582.1395884564188 364.19977678571405) rotate(0 1.4668654968760393 52.509804806209104)"><path d="M-7.37 74.87 C-5.46 81.48, -5.65 87.74, 2.24 104.77 M-7.93 75.55 C-4.68 85.32, -0.29 96.63, 3.12 102.44" stroke="#e67700" stroke-width="4" fill="none"></path></g><g transform="translate(582.1395884564188 364.19977678571405) rotate(0 1.4668654968760393 52.509804806209104)"><path d="M13.14 74.1 C10.72 80.92, 6.19 87.35, 2.24 104.77 M12.58 74.78 C8 84.75, 4.56 96.36, 3.12 102.44" stroke="#e67700" stroke-width="4" fill="none"></path></g></g><g stroke-opacity="0.6" fill-opacity="0.6" stroke-linecap="round" transform="translate(737.70703125 423.2907366071428) rotate(0 80.7890625 27.03125)"><path d="M14.08 1.16 L153.52 1.56 L158.52 1.51 L162.08 9.8 L162.4 48.1 L155.97 51.3 L149.26 54.52 L6.76 51.89 L1.19 48.86 L0.89 42.37 L-1.69 11.07 L0.42 4.69 L4.82 1.22 L15.29 -1.01" stroke="none" stroke-width="0" fill="#fa5252"></path><path d="M13.52 0 M13.52 0 C48.55 0.8, 87.02 -1.51, 148.06 0 M13.52 0 C48.76 -1.24, 85 -0.1, 148.06 0 M148.06 0 C156.67 -1.51, 160.3 5.17, 161.58 13.52 M148.06 0 C156.27 -1.19, 161.99 3.2, 161.58 13.52 M161.58 13.52 C163.08 25.32, 160.88 35.09, 161.58 40.55 M161.58 13.52 C161.74 20.69, 162.67 29.18, 161.58 40.55 M161.58 40.55 C161.72 49.86, 157.21 54.23, 148.06 54.06 M161.58 40.55 C163.49 51.43, 156.04 53.11, 148.06 54.06 M148.06 54.06 C107.51 55.06, 68.06 56.87, 13.52 54.06 M148.06 54.06 C108.85 53.18, 70.25 53.06, 13.52 54.06 M13.52 54.06 C3.92 53.71, -0.56 48.58, 0 40.55 M13.52 54.06 C5.2 54.88, -0.47 49.85, 0 40.55 M0 40.55 C-0.87 32.79, 1.36 23.41, 0 13.52 M0 40.55 C-0.53 35.22, -0.83 29.12, 0 13.52 M0 13.52 C-0.82 5.96, 5.33 -0.68, 13.52 0 M0 13.52 C1.22 2.38, 4.28 0.72, 13.52 0" stroke="#000000" stroke-width="1" fill="none"></path></g><g transform="translate(761.9843750000002 434.0368303571428) rotate(0 57.5 17)"><text x="57.5" y="27" font-family="Cascadia, Segoe UI Emoji" font-size="28px" fill="#000000" text-anchor="middle" style="white-space: pre;" direction="ltr">Effect?</text></g><g stroke-opacity="0.6" fill-opacity="0.6" stroke-linecap="round" transform="translate(537.4702380952381 766.1395089285711) rotate(0 175.6953125 105.12109375000006)"><path d="M0 0 C0 0, 0 0, 0 0 M0 0 C0 0, 0 0, 0 0 M0.01 6.6 C0.49 5.28, 2.44 2.35, 4.63 0.2 M0.07 6.51 C1.19 5.3, 2.15 3.92, 5.13 0.3 M0.07 13.33 C3.23 8.56, 8.49 2.56, 9.95 0.99 M-0.25 12.51 C2.22 8.38, 5.96 5.35, 11.39 -0.05 M-1.41 18.52 C1.19 16.24, 7.32 12.02, 15.98 -1.5 M0.46 19.3 C5.02 11.59, 10.8 5.03, 16.23 1.23 M-0.69 23.7 C4.37 19.69, 7.99 13.05, 19.82 -0.22 M0.47 23.13 C8.95 14.32, 16.58 4.73, 22.05 0.61 M1.29 30.94 C10.36 20.94, 17.42 11.15, 24.97 0.98 M-0.61 30.48 C10.53 18.56, 19.97 7.82, 27.19 -0.08 M-0.77 36.02 C5.42 31.17, 15.08 23.6, 32.01 1.61 M0.66 35.96 C13.17 22.07, 24.37 8.7, 32.31 0.82 M-1.34 40.9 C13.18 27.8, 25.31 11.79, 36.46 -1.34 M-0.62 43.28 C12.7 28.48, 24.02 15.43, 36.29 0.44 M1.16 47.72 C14.15 34.96, 27.15 19.21, 43.11 -1.64 M-0.73 49.11 C13.66 33.84, 25.38 19.23, 43.36 -0.06 M2.11 55.4 C13.12 41.34, 22.88 29.59, 48.07 2.06 M1.13 54.39 C16.05 37.05, 30.75 18.01, 46.73 0.11 M0.68 61.45 C20.07 36.26, 44.74 13.86, 53.11 -2.05 M0.53 61.96 C13.7 46.1, 25.66 32.03, 53.82 -0.05 M1.57 66.5 C12.91 49.98, 27.41 32.51, 59.65 -1.02 M0.3 67.85 C18.76 46.12, 37.16 23.46, 57.84 0.31 M0.26 72.39 C18.91 53.36, 34.94 31.52, 63.2 -1.42 M-0.54 73.2 C23.58 47.21, 45.81 19.71, 62.99 0.44 M-1.81 78.25 C20.82 52.65, 44.91 28.78, 67.26 0.53 M-0.84 79.04 C16.47 60.79, 32.33 42.47, 68.09 -0.42 M-1.41 87.02 C19.86 63.89, 38.06 39.8, 73.8 -1.27 M0.21 84.67 C21.04 59.88, 41.69 36.75, 73.77 -0.41 M-1.64 93.27 C30.43 57.46, 60.66 22.82, 81.17 -0.94 M-0.32 92.23 C30.39 57.78, 61.94 22.23, 80.1 0.52 M-0.09 97.81 C30.87 64.2, 62.21 29.14, 86.55 -0.85 M0.44 97.07 C26.26 68.13, 52.64 37.37, 85.73 -0.79 M-1.66 103.69 C27.72 70.56, 58.32 39.64, 91.88 -1.77 M1.09 102.54 C32.17 65.99, 64.29 27.87, 89.61 0.88 M-1.34 110.31 C28.73 78.16, 54.54 47.94, 94.31 0.89 M-1.1 109.92 C35.46 68.9, 71.02 29.42, 96.08 -0.28 M1.61 113.93 C37.59 73.44, 77.39 26.44, 100.11 -1.03 M0.29 115.68 C31.23 80.8, 61.57 45.11, 100.54 0.49 M1.53 121.55 C34.45 85.77, 67.65 44.25, 107.15 -0.72 M0.51 121.13 C29.45 86.35, 59.03 52.55, 106.64 -0.87 M0.21 127.43 C21.04 102.66, 43.23 76.03, 110.8 1.49 M0.14 127.74 C23.95 100.99, 47.01 76.42, 111.91 0.32 M0.07 135.15 C47.6 78.31, 93.48 24.84, 117.72 -1.34 M0 132.98 C36.21 92.42, 72.11 52.02, 116.25 0.83 M-0.61 141.68 C44.35 89.78, 87.14 41.23, 123.1 -0.71 M-0.87 141.17 C28.5 105.91, 56.31 75.23, 122.9 -0.59 M0.07 147.95 C26.75 111.6, 56.25 80.59, 125.84 -0.58 M0.24 145.83 C48.81 89.68, 96.28 32.16, 126.34 -0.44 M-0.35 150.85 C52.75 94.16, 102.05 32.44, 132.39 1.02 M0.37 152.29 C26.82 122.06, 54.78 89.99, 131.9 -0.06 M-1.04 157.1 C50.29 102.14, 98.81 40.93, 136.69 0.46 M0.48 158.03 C39.43 113.66, 80.04 67.06, 137.96 0.85 M1.1 164.03 C57.77 100.82, 114.58 35.88, 144.08 0.95 M-0.46 165.11 C44.47 114.32, 89.09 63.12, 143.15 0.15 M-1.75 169.98 C52.93 110.97, 106.19 50.76, 148.78 -1.44 M0.38 171.28 C43.48 118.15, 89.6 66.68, 147.75 -0.5 M1.61 177.24 C44.82 126.75, 86.82 75.82, 152.66 0.42 M0.3 175.86 C59.39 108.41, 119.12 39.79, 154.37 -0.4 M0.99 184.07 C58.38 113.98, 117.87 47.62, 157.26 1.33 M0.44 183.44 C48.14 128.45, 95.87 73.75, 159.29 0.02 M1.25 188.05 C39.93 142.32, 83.62 95.57, 164.96 -1.65 M0.02 189.07 C41.5 141.92, 81.7 94.24, 163.69 -0.42 M-0.64 194.42 C62.3 120.77, 128.24 46.33, 168.38 1.1 M0.2 195.27 C47.84 139.17, 96.94 83.05, 169.74 -0.43 M-0.21 200.29 C57.54 131.34, 118.36 64.88, 174.52 -0.46 M0.32 201.48 C63.05 129.66, 125.55 58.82, 175.17 0.52 M-0.9 205.48 C36.16 163.76, 72.12 120.39, 180.83 0.7 M0.11 206.73 C47.54 152.82, 94.63 97.13, 179.46 0.79 M2.06 211.97 C51.84 150.93, 103.27 92.56, 186.54 0 M1.9 211.27 C62.15 141.75, 124.17 71.35, 186.31 -0.19 M7.49 211.57 C48.28 165.35, 89.88 115.91, 191.35 1.36 M7.27 211.85 C72.14 133.62, 139.02 56.89, 190.75 -0.31 M11.57 211.71 C51.34 166.11, 94.32 118.17, 196.86 -1.37 M11.6 211.11 C63.2 153.13, 114.82 94.21, 195.78 0.48 M16.75 210.95 C71.9 149.5, 127.48 84, 202.34 1.42 M17.39 211.43 C75.91 145.45, 132.53 81.01, 200.97 0.54 M23.49 211.02 C67.47 158.12, 116.49 103.25, 206.2 -1.7 M21.99 212.17 C64.22 161.81, 107.3 112.01, 206.85 -0.62 M28.74 210.56 C72.03 161.74, 114.69 113, 210.93 0.97 M28.07 210.96 C89.99 138.53, 152.63 65.27, 212.62 -0.42 M33.9 212.6 C78.27 159.48, 124.87 105.98, 218.47 -1.73 M33.78 211.73 C91.22 147.67, 147.03 82.49, 217.56 0.39 M40.2 212.23 C96.95 144.93, 155.88 78.35, 222.86 0.33 M38.63 210.71 C95.75 145.93, 154.16 78.25, 223.32 -0.33 M44.41 213.22 C81.39 171.67, 115.88 128.51, 227.06 -1.24 M44.35 212.11 C111.14 131.97, 180.47 54.28, 227.61 -0.22 M49.57 212.66 C119.61 132.18, 188.51 52.46, 232.53 -1.49 M50.06 211.05 C87.16 168.81, 124.52 125.87, 232.7 0.29 M54.52 211.41 C115.59 143.07, 176.32 74.01, 237.08 0.23 M54.64 212.28 C119.05 135.95, 186.72 59.18, 238.42 0.05 M61.59 211.05 C120.14 144.84, 178.94 75.53, 242.95 0.85 M59.6 211.64 C129.82 132.88, 196.31 55.25, 243.19 -0.11 M66.16 212.04 C128.5 138.27, 192.19 63.38, 248.15 1.83 M65.3 211.66 C131.71 133.81, 199.6 56.52, 248.9 -0.02 M70.44 210.65 C113.72 162.09, 156.43 110.14, 254.99 -0.88 M70.74 210.71 C125 147.13, 180.27 83.46, 254.65 -0.37 M76.09 212.52 C115.08 168.83, 151.89 125.09, 258.08 1.35 M75.93 210.93 C139.5 139.78, 202.95 65.64, 259.93 -0.08 M82.07 211.87 C124.77 163.21, 169.1 113.7, 265.85 0.63 M81.05 212.7 C137.75 148.53, 191.99 85.92, 265.13 -0.34 M86.6 210.5 C153.67 137.08, 216.39 62.66, 270.11 -0.09 M85.9 211.2 C123.11 168.34, 162.04 123.68, 270.09 -0.43 M90.77 210.74 C134.62 162.93, 178.93 113.39, 276.75 -0.87 M91.72 212.18 C157.76 134.52, 225.37 57.55, 276.21 -0.21 M97.84 211.49 C146.26 157.25, 196.07 102.17, 281.5 1.11 M96.55 211.78 C157.59 140.47, 219.27 71.1, 280.36 -0.55 M101.3 211.14 C173.11 131.32, 243.21 52.86, 285.23 0.8 M101.32 211.47 C162.05 143.1, 222.33 73.65, 286.18 0.31 M106.3 212.03 C167.27 146.64, 224.05 78.84, 291.21 0.35 M107.43 210.91 C153.25 158.45, 199.33 104.31, 291.85 0.2 M111.58 211.07 C151.95 169.02, 190.58 125.3, 295.89 -1.69 M112.21 212.18 C167.89 148.14, 223.33 84.64, 296.84 -0.3 M118.6 210.39 C172.73 150.17, 226.57 87.78, 301.45 1.67 M118.61 211.11 C186.53 131.97, 253.84 53.24, 301.91 0.22 M122.74 211.02 C180.38 149.22, 234.99 85.35, 306.62 -0.2 M123.07 212.19 C168.68 159.83, 212.79 108.6, 308.2 -0.07 M128.5 211.22 C187.33 142.39, 247.81 74.31, 313.06 0.9 M128.31 210.78 C172.37 160.49, 216.91 109.14, 312.63 -0.48 M134.57 212.46 C175.28 163.2, 213.87 115.47, 319.29 -0.12 M134.2 212.54 C207.16 128.85, 279.86 44.64, 317.7 -0.35 M139.89 211.68 C196.66 144.49, 256.4 78.13, 323.98 -0.54 M139.86 211.09 C191.68 151.36, 243.28 91.15, 323.88 0.53 M143.97 213.28 C214.35 129.47, 285.62 47.46, 329.05 -0.51 M145.25 212.04 C184.91 163.61, 225.17 117.29, 328.64 -0.54 M149.93 212.26 C209.25 143.18, 271.7 73.43, 333.83 -0.28 M150.19 210.61 C204.01 150.47, 254.71 90.86, 334.14 -0.41 M155.63 212.32 C222.71 130.91, 293.46 50.97, 338.12 -1.74 M154.43 211.12 C210.45 149.44, 265.28 86.72, 340.18 -0.28 M159.78 212.08 C231.03 129.54, 304.71 47.34, 345.51 0.48 M161.3 210.67 C210.15 152.74, 260.23 94.09, 344.25 0.05 M165.26 210.92 C209.16 158.65, 253.54 107.9, 350.51 -0.16 M165.44 211.05 C240.96 127.93, 313.2 43.46, 349.07 0.42 M169.99 210.5 C223.17 151, 275.61 94.2, 353.06 2.99 M171.85 211.55 C218.71 156.57, 265.69 102.26, 353.9 2.24 M176.37 211.44 C246.27 131.44, 314.56 52.34, 354.36 8.82 M175.93 211.67 C218.7 164.35, 258.75 117.12, 354.05 8.12 M182.08 211.75 C245.43 136.61, 310.39 60.05, 352.68 13.14 M182.57 211.69 C233.84 149.11, 286.98 88.27, 353.32 14.1 M186.49 212.67 C237.17 158.75, 286.09 100.84, 353.51 18.47 M187.58 212.16 C237.85 153.85, 286.55 97.36, 353.08 19.95 M193.95 210.9 C253.66 140.37, 314.02 69.41, 352.08 25.26 M192.25 211.5 C230.77 165.02, 269.95 120.5, 353.44 26.43 M198.05 211.02 C258.1 142.99, 316.17 71.71, 354.97 31.1 M197.36 211.67 C230.3 172.61, 263.86 135.21, 354.5 32.09 M203.53 211.93 C259.77 146.2, 319.76 78.45, 354.46 39.98 M202.83 211.85 C256.24 153.65, 306.82 92.77, 353.35 39.07 M207.09 212.17 C265.6 145.29, 320.37 80.73, 353.97 45.1 M207.99 211.93 C238.52 176.62, 268.08 143, 353.71 44.86 M213.39 210.18 C244.11 175.45, 278.16 141.7, 352.06 51.25 M213.01 211.91 C248.53 170.92, 284.21 128, 352.87 51.09 M218.25 212.98 C265.85 157.02, 314.11 104.36, 351.82 58.3 M219.15 211.41 C249.43 177.6, 279.13 144.72, 353.42 55.92 M225.54 212.18 C268.73 161.62, 309.72 113.43, 354.48 62.4 M223.28 210.94 C263 167.67, 301.53 123.15, 354.77 62.44 M229.61 213.06 C257.78 183.65, 281.64 152.01, 354.61 67.16 M229.65 211.25 C278 155.02, 327.89 100.03, 354.35 69.38 M234.15 213.52 C261.44 178.27, 292.21 143.85, 355.21 75.51 M234.91 211.92 C274.82 166.64, 313.58 120.99, 353.78 75.85 M241.11 212.71 C273.14 175.01, 300.43 140.27, 355.67 80.95 M240.16 210.97 C263.62 185.08, 286.12 158.79, 354.63 80.88 M246.49 211.08 C282.39 169.15, 321.96 121.66, 352.82 85.83 M245.6 211.48 C275.31 176.96, 305.41 144.07, 353.39 87.13 M252.82 212.14 C279.36 181.13, 305.75 147.59, 354.66 93.88 M250.66 211.12 C283.73 176.17, 314.84 138.14, 353.95 92.22 M257.05 210.3 C286.82 175.28, 319.9 139.04, 354.36 100.05 M256.73 210.84 C278.76 185.27, 300.8 160.28, 353.31 98.37 M263.06 212.65 C293.52 174.07, 326.97 135.07, 352 107.03 M261.24 212.35 C288.47 178.34, 316.04 147.93, 354 105.68 M265.52 210.85 C289.5 189.93, 309.33 162.1, 351.79 111.37 M266.35 210.83 C295.98 177.72, 325.28 141.47, 353.09 112.03 M270.39 210.84 C297.02 185.48, 318.75 155.25, 353.3 119.51 M271.11 210.42 C301.35 177.52, 330.74 143.95, 354.07 117.89 M278.82 212.73 C304.2 185.57, 326.43 153.56, 355.24 122.31 M276.11 210.9 C300.88 183.05, 326.94 154.66, 354.4 122.68 M283.6 212.56 C300.41 192.37, 320.14 169.66, 355.41 130.94 M283.63 211.21 C297.26 193.99, 311.39 176.81, 354.13 129.34 M289.1 210.18 C314.03 183.98, 339.21 152.14, 354.44 135.38 M288.33 212.1 C310.49 185.25, 334.93 157.79, 353.42 136.72 M291.68 210.98 C305.9 195.48, 320.42 179.14, 355.06 140.5 M293.33 211.69 C314.13 188.22, 334.55 163.06, 354.44 142.38 M299.7 209.76 C317.81 188.61, 339.04 164.36, 355.29 148.14 M298.95 212.09 C319 188.79, 337.16 166.69, 354.39 148.45 M305.86 212.53 C313.45 198.37, 325.07 185.27, 353.56 154.39 M304.83 210.97 C314.88 198.81, 325.14 187.34, 353.26 153.72 M307.21 212.29 C319.02 201.13, 325.61 190.9, 353.94 159.67 M308.57 212.15 C323.09 194.06, 338.42 177.97, 352.78 159.5 M312.9 211.66 C323.43 201.32, 336.94 188.84, 353.37 164.82 M313.27 211.99 C324.06 202.14, 331.68 190.52, 352.42 166.43 M319.41 210.87 C333.48 195.11, 343.85 180.44, 353.42 173.6 M319.42 212.16 C327.82 202.93, 336.49 193.24, 352.82 172.86 M323.77 213.88 C336.25 198.64, 344.19 187.92, 352.24 180.57 M323.89 211.56 C334.58 200.3, 345.23 187.92, 352.47 179.43 M329.33 212.88 C338.57 202.88, 346.32 192.88, 352.33 185.58 M330.38 211.61 C337.57 204.52, 343.84 196.82, 353.23 185.41 M335.7 210.2 C339.35 209.15, 341.09 202.93, 351.77 189.92 M335.1 211.86 C341.02 203.39, 349.25 196.31, 354.23 191.52 M341.17 210.07 C346.38 206.71, 349.36 200.23, 353.44 198.24 M339.99 210.64 C343.19 208.06, 346.6 204.1, 352.87 197.81 M345.2 212.05 C347.99 208.74, 351.64 205.58, 354.36 203.19 M346 212.19 C348.13 208.73, 350.98 205.93, 353.39 202.98 M0.05 210.29 C0.05 210.29, 0.05 210.29, 0.05 210.29 M0.05 210.29 C0.05 210.29, 0.05 210.29, 0.05 210.29 M5.92 210.03 C3.97 209.34, 3.2 207.98, 0.33 205.16 M6.81 210.57 C4.94 209.01, 3.02 207.62, -0.1 204.78 M13.42 208.7 C9.97 207.77, 5.81 207.16, -0.24 198.09 M11.35 209.52 C9.39 206.92, 6.66 204.87, 0.76 200.32 M17.17 208.42 C13.59 206.16, 8.6 200.64, -1.68 195.85 M18.45 209.58 C14.9 207.35, 9.5 202.87, -0.72 193.45 M24.43 209.47 C16.63 204.16, 4.98 194.95, -1.74 188.08 M24.47 210.56 C16.47 202.66, 8.07 196.05, -0.42 189.59 M31.81 211.46 C23.03 202.51, 13.95 194.65, -0.47 184.14 M29.93 210.08 C18.28 199.04, 7.27 188.82, 0.53 184.93 M38.93 211.84 C30.08 202.42, 21.76 196.51, -1.57 177.49 M37.6 210.45 C27.3 200.87, 16.16 191.22, 0.25 179.3 M42.15 211.21 C29.23 199.07, 15.13 188.43, -1.04 173.06 M43.44 210.04 C30.13 199.7, 17.7 188.36, 0.47 172.91 M50.06 209.2 C38.63 199.98, 24.96 191.14, -1.25 166.5 M48.77 209.86 C33.33 194.98, 14.92 182.1, 0.18 167.38 M53.36 211.63 C44.41 198.87, 33.34 191.53, 0.28 163.23 M53.9 210.55 C40.04 198.45, 26.33 184.75, -0.47 163.51 M60.11 209.58 C38.61 188.29, 15.32 168.38, 0.01 156.99 M60.08 210.21 C39.48 191.47, 17.58 172.57, 0.74 157.71 M65.61 210.62 C43.45 191, 22.95 170.97, -0.36 152.93 M67.12 211.45 C45.96 192.06, 25.68 174.14, 0.01 151.77 M71.86 210.59 C52.55 192.57, 34.45 176.38, -0.79 146.12 M73.54 209.87 C55.75 193.71, 37.4 178.82, 0.43 147.26 M81.01 211.39 C57.5 192.19, 34.73 169.95, 0.38 140.68 M79.78 209.72 C56.2 190.14, 33.95 170.02, -0.13 141.35 M83.28 210.17 C52.06 180.42, 19.93 154.12, -0.44 136.3 M84.78 209.81 C61.22 190.16, 40.01 169.93, -0.1 135.15 M90.16 208.41 C54.94 178.64, 23.58 150.52, -0.9 131.32 M90.96 210.42 C57.59 181.11, 23.81 152.44, -0.3 131.54 M98.34 209.16 C71.78 189.87, 48.86 168.17, 0.49 125.26 M98.83 211.27 C64.62 181.78, 32.22 153.3, -1.06 125.55 M103.12 210.77 C79.18 186.9, 51.88 165.82, -0.43 121.94 M104.15 211.07 C71.27 182.4, 40.54 155.48, -0.28 120.2 M109.93 210.73 C78.4 180.45, 47.16 155.33, -0.33 115.99 M110.11 210.12 C70.59 175.82, 32.84 142.68, -0.54 114.79 M116.16 208.83 C86.63 182.95, 54.49 156.96, -1.17 107.94 M114.95 209.29 C71.04 170.12, 25.76 132.87, 0.82 108.83 M122.45 210.29 C76.72 172.17, 33.71 135.22, -1.04 102.77 M121.92 209.85 C90.03 182.52, 57.86 155, 0.55 104.29 M126.54 208.91 C95.96 181.31, 59.51 152.06, 1.08 100.98 M128.88 210.47 C88.85 176.75, 50.16 142.53, -0.51 99.53 M134.77 210.89 C104.88 182.26, 72.99 156.41, -1.55 93.15 M134.47 209.84 C84.24 168.86, 35.42 124.7, -0.59 93.58 M139.47 208.62 C105.67 178.62, 65.33 147.67, -0.2 87.01 M141.32 210.15 C106.6 181.47, 72.18 151.22, 0.91 88.01 M146.95 209.86 C109.29 180.41, 72.46 146.88, -1.54 81.97 M146.61 209.13 C108.89 177.23, 72.83 147.21, 0.38 83.29 M150.82 210.77 C105.77 168.04, 56.38 126.64, -0.33 76.4 M153 210.85 C118.33 179.6, 82.17 150, -0.13 78.5 M159.02 209.57 C106.53 165.7, 57.49 122.19, 2.04 73.86 M159.47 210.07 C124.38 179.73, 89.75 149.37, 0.67 72.82 M165.09 210.92 C122.78 173.46, 77.97 136.64, -1.32 65.46 M164.31 210.76 C101.25 155.73, 36.34 100.04, -0.2 67.19 M170.17 211.95 C114.56 158.14, 55.77 108.52, -0.72 63.18 M170.93 210.4 C121.72 167.22, 72.18 123.95, 0.49 62.66 M176.5 208.33 C106.81 149.85, 37.79 90.98, 1.23 54.98 M176.34 209.25 C132.4 171.63, 88.33 132.79, -0.24 56.39 M184.21 210.88 C122.46 160.17, 61.49 107.74, -1.03 51.37 M182.37 210.71 C145.52 179.79, 108.78 147.4, 0.33 51.64 M188.99 210.49 C117.85 148.76, 48.85 87, -0.92 47.42 M189.34 209.8 C142.07 167.99, 93.35 125.32, -0.48 46.18 M195.19 208.63 C133.93 157.29, 73.53 103.97, 1.85 41.73 M194.94 210.58 C122.73 147.8, 51.54 85.5, 0.92 40.7 M200.88 208.87 C133.62 153.47, 67.23 97.01, 0.21 35.68 M200.66 209.7 C147.05 162.12, 91.84 114.63, 0.18 35.53 M206.64 210.55 C156.72 169.16, 105.7 125.44, 0.93 28.8 M207.78 210.1 C131.19 142.46, 56.54 77.14, -0.11 30.77 M214.44 210.99 C140.77 145.57, 65.84 81.54, 0.32 24.44 M213.25 209.97 C158.95 162.33, 104.53 115.88, 0.11 24.75 M220.33 211.64 C160.67 158.8, 99.99 107.59, -0.71 19.31 M219.89 211.21 C169.03 165.92, 119.35 122.68, 0.54 18.96 M225.28 210.53 C139.66 137.01, 52.25 60.53, 0.96 15.09 M225.41 210.3 C135.84 132.39, 47.7 57.1, -0.87 14.58 M232.13 211.67 C169.19 158.26, 105.29 102.49, 1.24 8.44 M232.29 209.84 C150.75 141.16, 69.96 70.15, 0.07 8.65 M236.85 208.58 C154.2 135.99, 72.08 64.43, -1.33 4.72 M237.21 210.47 C150.39 134.3, 64.18 58.74, 0.36 3.95 M244.18 211.03 C162.75 139.34, 82.04 69.75, 0.23 -2.28 M244.24 210.92 C147.97 126.42, 52.57 44.08, 0.35 -1.39 M250.29 211.77 C194.41 162.73, 138.74 114.26, 8.46 0.34 M250.23 210.35 C182.8 154.13, 116.57 96.76, 6.95 -1.1 M257.22 209.69 C196.8 158.17, 137.76 105.93, 12.77 -2.02 M255.49 210.54 C164.46 130.61, 75.55 53.19, 13.06 -0.83 M263.32 211.55 C172.98 134.03, 83.97 57.03, 18.57 -1.51 M262.46 210.69 C180.56 139.39, 100.87 68.46, 19.14 -1.23 M267.22 209.09 C210.03 158.8, 151.84 107.93, 25.06 -2.26 M267.59 210.18 C181.5 134.39, 93.45 57.78, 24.61 -1.78 M273.29 209.31 C181.2 132.13, 91.22 50.83, 32.06 0.1 M274.97 210.77 C186.57 134.45, 98.99 58.22, 31.12 -0.79 M281.56 211.56 C221.79 163.16, 165.91 112.88, 36.97 -0.28 M281.22 211.01 C230.71 166.43, 181.27 123.2, 37.78 -0.21 M286.71 209.44 C230.51 165.39, 178.15 117.86, 43.41 -2.26 M286.77 210.7 C215.29 146.84, 144.63 85.24, 43.48 -0.48 M292.24 210.71 C201.33 130.53, 109.01 52.12, 49.03 -1.45 M292.46 210.54 C243.82 165.59, 191.99 122.35, 49.69 -0.25 M299.1 210.28 C212.16 136.45, 127.38 64.66, 54.92 -1.91 M299.07 209.98 C230.94 150.48, 164 92.25, 55.16 -1.93 M304.15 210.66 C228.38 143.33, 150.63 76.53, 62.79 0.13 M304.95 210.11 C250.64 161.61, 195.56 113.56, 61.21 -1.19 M311.06 211.68 C222.99 136.26, 139.3 61.99, 67.69 -1.04 M311.12 210.21 C224.8 135.74, 137.28 60.35, 67.71 -0.85 M316.67 210.89 C236.75 139.34, 154.61 70.29, 73.65 -1.98 M316.48 210.09 C222.38 127.62, 129.79 46.54, 73.26 -0.85 M323.86 211.04 C248.82 145.84, 174.51 83.12, 80.04 -0.87 M323.52 210.41 C272.6 165.17, 221.89 121.26, 80.14 -1.44 M328.68 211.09 C280.08 167.96, 229.04 122.76, 86.89 -2.17 M328.76 209.9 C239.07 133.26, 150.49 56.42, 85.48 -1.1 M334.23 211.41 C279.31 160.71, 223.59 114.33, 93.37 -1.8 M335.03 210.27 C237.18 125.6, 140.66 41.6, 92.8 -0.62 M340.62 210.4 C261.69 141.42, 180.32 69.7, 97.55 -0.22 M341.91 210.73 C265.09 143.83, 189.63 78.38, 99.02 -1.02 M346.66 209.12 C292.5 164, 239.46 118.09, 105.02 -1.95 M347.25 209.58 C267.49 142.17, 189.73 75.09, 105 -1.14 M351.43 210.45 C295.74 158.93, 239.29 112.23, 111.12 0.18 M352.02 209.53 C271.68 137.77, 192.87 68.37, 110.1 -1.57 M352 203.81 C271.68 135.72, 192.08 65.4, 115.95 -0.6 M352.27 203.68 C286.54 145.89, 220.83 89.47, 116.55 -1.84 M352.83 198.7 C299.07 151.66, 246.83 106.68, 121.5 -0.36 M351.74 198.37 C263 121.13, 174.18 43.95, 122.17 -0.98 M352.4 193.54 C282.62 135.81, 215.73 77.51, 130.21 -1.86 M352.74 193.14 C269.45 122.71, 187.34 51.63, 129.11 -0.42 M351.99 187.58 C274.52 117.84, 196.15 49.11, 134.75 -1.08 M352.4 187.55 C305.52 147.28, 259.01 106.99, 135.35 -0.82 M352.5 183.29 C310.09 146.31, 266.42 108.31, 141.83 -1.61 M352.25 183.35 C306.26 141.88, 261.24 101.9, 141.15 -1.16 M352.11 176.32 C291.71 126.98, 232.7 74.32, 145.48 -1.62 M352.27 176.49 C271.21 108.29, 189.98 37.55, 147.54 -2.06 M351.72 172.93 C276.87 103.5, 198.42 39.73, 152.2 -2.24 M352.97 172.91 C301.06 126.41, 248.71 81.82, 153.15 -1.59 M353.05 167.52 C276.35 101.85, 204.48 38.58, 159.74 0.09 M352.33 166.64 C300.4 120.6, 247.32 73.52, 160.44 -0.2 M351.22 160.09 C286.1 105.4, 217.48 46.54, 166.31 -2.08 M352.56 161.96 C311.5 123.77, 268.08 86.25, 165.3 -1.57 M352.27 156.03 C311.94 120.14, 274.09 87.54, 172.24 0.42 M352.52 155.97 C303.91 112.3, 253.83 70.06, 171.22 -1.27 M352.51 151.63 C299.44 105.24, 245.73 58.57, 179.04 -2.4 M352.7 151.58 C302.26 107.51, 252.13 63.09, 177.53 -0.45 M353.15 146.56 C300.44 103.06, 253.37 58.47, 184.79 -1.5 M352.5 144.43 C293 94.68, 233.66 43.26, 184.46 -1.26 M352.24 138.98 C292.52 86.88, 231.25 35.59, 189.86 -1.98 M351.93 139.63 C305.02 98.31, 258.07 57.12, 189.31 -0.67 M353.47 135.8 C302.25 89.62, 249.7 46.81, 195.23 -0.93 M352.44 135.18 C296.49 87.73, 243.23 40.7, 196.61 -0.73 M354.21 129.82 C298.57 82.97, 243.96 37.86, 202.34 -1.27 M353.35 130.13 C304.75 88.37, 254.98 47.97, 202.85 -1.1 M353.82 123.97 C303.72 81.69, 255.7 37.59, 206.71 -2.41 M352.22 123.1 C315.31 91.36, 279.02 59.69, 207.39 -2.09 M352.92 119.09 C317.73 90.11, 287.57 60.54, 212.83 -0.05 M352.74 118.16 C302.37 77.17, 253.7 32.89, 214.1 -0.42 M352.37 114.12 C302.17 70.28, 253.73 28.94, 220.38 0.69 M353.01 114.37 C309.65 75.66, 268.88 39.86, 220.37 -0.41 M350.95 108.13 C320.81 81.23, 293.88 56.31, 227.63 -2.93 M352.75 107.43 C327.12 84.56, 300.11 62.07, 225.38 -1.45 M352.75 104 C308.63 63.66, 260.02 22.97, 232.87 -1.48 M353.49 104.23 C308.74 65.15, 266.61 28.19, 233.28 -0.35 M353.14 99.74 C309.25 63.04, 268.65 23.7, 238.32 -0.11 M352.2 97.85 C310.7 60.95, 269.09 25.83, 237.8 -1.42 M353.94 91.47 C316.69 59.68, 282.73 30.89, 243.36 -1.54 M353.2 93.41 C323.92 67.95, 296 44.33, 245.18 -1.56 M352.57 88.02 C322.56 61.43, 295.15 37.29, 252.45 -0.81 M353.06 86.42 C317.2 55.57, 281.02 24.95, 250.83 -0.3 M353.34 82 C323.69 55.53, 294.32 31.4, 256.52 0.5 M352.54 82.61 C328.15 61.93, 305.32 40.83, 256.48 -0.22 M352.51 76.33 C335.36 61.68, 312.98 43.2, 264.51 -1.97 M351.45 76.28 C333.76 61.14, 314.76 45.28, 262.34 -0.4 M353.59 71.35 C319.51 44.75, 287.54 16.93, 269.21 -0.09 M352.59 72.14 C333.04 55.03, 314.89 37.45, 268.75 -1.41 M352.45 67.33 C331.92 48.7, 314.78 33.62, 274.51 -2.25 M352.63 65.65 C324.93 41.35, 296.81 16.72, 276.1 -1.47 M352.56 59.57 C337.73 48.13, 323.48 36.64, 281.29 -2.09 M352.05 60.9 C335.26 45.5, 317.23 30.62, 282.46 -1.45 M354.12 56.94 C336.77 41.96, 321.85 31.15, 286.88 -2.73 M351.99 54.88 C327.77 34.7, 302.39 12.91, 287.76 -0.3 M353.31 48.97 C329.8 29.44, 310.42 12.42, 294.54 1.02 M352.24 49.42 C339 38.81, 324.44 25.62, 292.95 -1.51 M351.44 44.39 C335.13 30.79, 320.19 17, 297.31 -0.16 M352.07 45.42 C341.36 34.11, 330.87 24.69, 298.62 -1.07 M354.14 38.17 C342.5 29.4, 332.29 21.44, 307.26 -0.98 M352.17 38.82 C339.38 29.21, 328.15 17.53, 305.95 -0.68 M352.57 34.16 C339.56 22.4, 327.72 10.82, 311.42 -0.38 M351.54 34.84 C339.3 22.24, 327.26 11.67, 311.36 -1.7 M350.57 28.05 C340.44 20.15, 329.36 10.61, 317.19 0.31 M351.44 29.86 C341.91 19.99, 332.37 12.39, 317.61 -1.61 M353.88 22.03 C346.67 16.53, 339.09 12.58, 323.82 -2.91 M352.22 23.79 C345.75 17.33, 341 13.37, 324.05 -1.46 M353.33 19.77 C344.63 10.68, 338.1 3.29, 328.3 -1.43 M353.32 17.87 C343.65 11.37, 335.71 2.01, 330.19 -0.83 M353.97 13.05 C344.72 5.6, 338.01 3.28, 336.6 -3.01 M352.07 13.06 C347.25 9.4, 342.45 5.67, 335.66 -2.04 M351.06 8.42 C349.51 5.92, 345.47 1.19, 341.89 -0.65 M351.94 7.8 C349.52 4.43, 345.33 1.31, 342.1 -0.99 M352.62 3.19 C350.76 1.75, 349.9 -0.34, 347.62 -0.94 M352.79 2.88 C351.21 1.36, 349.63 0.11, 348.15 -1.19" stroke="#e64980" stroke-width="0.5" fill="none"></path><path d="M-0.36 1.08 C112.05 -1.02, 221.42 -0.03, 351.68 -0.55 M0.22 -0.43 C81.52 0.15, 163.8 -0.28, 351.24 -0.22 M350.97 0.24 C349.7 82.55, 351.97 162.18, 350.83 211.8 M350.83 0.49 C349.71 72.69, 349.32 147, 351.08 209.78 M350.49 210.27 C240.72 212.96, 127.53 212.94, -0.12 210.8 M352.02 210.21 C221.01 208.8, 90.59 208.76, 0.54 210.77 M0.17 211.38 C0.39 156.7, 0.99 104.64, -0.21 -0.85 M-0.3 210.06 C0.63 159.52, 0.64 108.68, 0.27 0.31" stroke="#000000" stroke-width="1" fill="none"></path></g><g transform="translate(568.421130952381 831.5217633928569) rotate(0 139.5 34)"><text x="139.5" y="27" font-family="Cascadia, Segoe UI Emoji" font-size="28px" fill="#000000" text-anchor="middle" style="white-space: pre;" direction="ltr">View</text><text x="139.5" y="61" font-family="Cascadia, Segoe UI Emoji" font-size="28px" fill="#000000" text-anchor="middle" style="white-space: pre;" direction="ltr">(SwiftUI / UIKit)</text></g><g stroke-opacity="0.6" fill-opacity="0.6" stroke-linecap="round" transform="translate(10 369.62555803571405) rotate(0 110.03125 27.03125)"><path d="M15.18 1.64 L209.39 -0.65 L217.88 3.83 L218.37 6.28 L219.14 43.79 L217.36 49.34 L210.55 53.94 L205.07 53.48 L9.88 53.17 L7.05 51.15 L0.18 45.99 L0.27 12.66 L1.83 9.32 L2.05 2.74 L9.37 1.82 L11.89 -1.16" stroke="none" stroke-width="0" fill="#82c91e"></path><path d="M13.52 0 M13.52 0 C57.67 -0.89, 105.5 -0.31, 206.55 0 M13.52 0 C62.02 0.4, 109.3 1.94, 206.55 0 M206.55 0 C217.56 -0.51, 222.03 4.32, 220.06 13.52 M206.55 0 C216.55 1.64, 220.16 2.95, 220.06 13.52 M220.06 13.52 C220.35 24.39, 220.22 36.66, 220.06 40.55 M220.06 13.52 C219.92 23.92, 220.59 33.93, 220.06 40.55 M220.06 40.55 C220.19 49.8, 217.49 53.82, 206.55 54.06 M220.06 40.55 C218.95 48.19, 214.46 53.88, 206.55 54.06 M206.55 54.06 C154.78 52.94, 102.74 54.1, 13.52 54.06 M206.55 54.06 C142.27 54.46, 76.89 53.89, 13.52 54.06 M13.52 54.06 C6.2 55.46, 1.76 47.9, 0 40.55 M13.52 54.06 C5.24 52.57, -1.02 50.82, 0 40.55 M0 40.55 C1.37 35.26, -0.77 29.39, 0 13.52 M0 40.55 C0.87 35.27, 0.28 28.38, 0 13.52 M0 13.52 C1.71 3.7, 3.26 -0.9, 13.52 0 M0 13.52 C-0.45 2.91, 3.53 -1.63, 13.52 0" stroke="#000000" stroke-width="1" fill="none"></path></g><g transform="translate(30.753906250000227 380.37165178571405) rotate(0 90 17)"><text x="90" y="27" font-family="Cascadia, Segoe UI Emoji" font-size="28px" fill="#000000" text-anchor="middle" style="white-space: pre;" direction="ltr">Environment</text></g><g stroke-opacity="0.6" fill-opacity="0.6" stroke-linecap="round" transform="translate(1031.5943080357144 426.49162946428544) rotate(0 80.7890625 27.03125)"><path d="M14.72 0.45 L153.13 -0.48 L157.49 3.45 L162.04 9.01 L158.83 47.18 L154.82 51.58 L147.6 53.38 L9.37 52.21 L1.24 48.31 L0.49 42.86 L1.2 12.07 L0.57 4.64 L7.04 2.88 L11.89 -1.16" stroke="none" stroke-width="0" fill="#be4bdb"></path><path d="M13.52 0 M13.52 0 C43.83 -1, 77.83 -0.43, 148.06 0 M13.52 0 C47.52 0.06, 80.29 1.61, 148.06 0 M148.06 0 C159.07 -0.51, 163.55 4.32, 161.58 13.52 M148.06 0 C158.06 1.64, 161.67 2.95, 161.58 13.52 M161.58 13.52 C161.87 24.39, 161.74 36.66, 161.58 40.55 M161.58 13.52 C161.44 23.92, 162.1 33.93, 161.58 40.55 M161.58 40.55 C161.71 49.8, 159.01 53.82, 148.06 54.06 M161.58 40.55 C160.47 48.19, 155.98 53.88, 148.06 54.06 M148.06 54.06 C111.87 53.11, 75.41 54.27, 13.52 54.06 M148.06 54.06 C103.41 54.39, 57.65 53.82, 13.52 54.06 M13.52 54.06 C6.2 55.46, 1.76 47.9, 0 40.55 M13.52 54.06 C5.24 52.57, -1.02 50.82, 0 40.55 M0 40.55 C1.37 35.26, -0.77 29.39, 0 13.52 M0 40.55 C0.87 35.27, 0.28 28.38, 0 13.52 M0 13.52 C1.71 3.7, 3.26 -0.9, 13.52 0 M0 13.52 C-0.45 2.91, 3.53 -1.63, 13.52 0" stroke="#000000" stroke-width="1" fill="none"></path></g><g transform="translate(1062.0234375000002 434.6886160714283) rotate(0 49 17)"><text x="49" y="27" font-family="Cascadia, Segoe UI Emoji" font-size="28px" fill="#000000" text-anchor="middle" style="white-space: pre;" direction="ltr">Action</text></g><g stroke-linecap="round"><g transform="translate(807.1588541666667 357.26004464285677) rotate(0 0.39515219800171053 32.43054509945213)"><path d="M0.4 -0.81 C0.4 10.13, -0.37 54.72, -0.48 65.67 M-0.84 1.39 C-0.46 11.95, 1.12 53, 1.63 63.77" stroke="#c92a2a" stroke-width="2" fill="none"></path></g><g transform="translate(807.1588541666667 357.26004464285677) rotate(0 0.39515219800171053 32.43054509945213)"><path d="M-11.15 34.13 C-6.05 41.86, -4.33 50.22, 0.95 65.54 M-9.67 35.61 C-6.55 43.84, -4.86 49.58, 2.51 64.26" stroke="#c92a2a" stroke-width="2" fill="none"></path></g><g transform="translate(807.1588541666667 357.26004464285677) rotate(0 0.39515219800171053 32.43054509945213)"><path d="M9.35 33.27 C9.02 41.29, 5.32 49.88, 0.95 65.54 M10.83 34.74 C8.83 43.14, 5.41 49.1, 2.51 64.26" stroke="#c92a2a" stroke-width="2" fill="none"></path></g></g><g stroke-linecap="round"><g transform="translate(814.4970238095239 479.02343749999966) rotate(0 125.58595892974478 60.613270449183744)"><path d="M-1.14 0.43 C4.46 18.48, -4.34 89.66, 34.05 107.47 C72.44 125.29, 193.06 123.73, 229.2 107.32 C265.33 90.9, 247.49 25.32, 250.86 8.99 M0.46 -0.39 C6.4 17.9, -1.67 90.69, 36.3 108.82 C74.27 126.96, 193 124.93, 228.29 108.42 C263.57 91.91, 244.15 26.25, 248 9.78" stroke="#862e9c" stroke-width="2" fill="none"></path></g><g transform="translate(814.4970238095239 479.02343749999966) rotate(0 125.58595892974478 60.613270449183744)"><path d="M259.77 36.19 C254.96 27.79, 251.18 20.72, 246.99 9.11 M259.54 38.53 C255.29 29.59, 253.79 22.69, 247.19 9.19" stroke="#862e9c" stroke-width="2" fill="none"></path></g><g transform="translate(814.4970238095239 479.02343749999966) rotate(0 125.58595892974478 60.613270449183744)"><path d="M239.25 36.76 C241.3 28.37, 244.36 21.1, 246.99 9.11 M239.03 39.1 C240.45 30.09, 244.61 23.03, 247.19 9.19" stroke="#862e9c" stroke-width="2" fill="none"></path></g></g><g stroke-linecap="round"><g transform="translate(903.6990327380952 873.1752232142857) rotate(0 109.12561226343468 -192.22680428655207)"><path d="M-0.89 -0.35 C32.42 -7.47, 162.83 21.8, 198.71 -42.27 C234.6 -106.33, 212.06 -327.7, 214.43 -384.72 M0.85 -1.58 C34.07 -8.57, 162.06 22.75, 197.62 -40.94 C233.18 -104.63, 211.66 -326.64, 214.22 -383.72" stroke="#862e9c" stroke-width="4" fill="none"></path></g><g transform="translate(903.6990327380952 873.1752232142857) rotate(0 109.12561226343468 -192.22680428655207)"><path d="M224.54 -356.24 C222.12 -359.81, 219.55 -367.96, 213.75 -383.45 M224.46 -356.1 C223.07 -362.38, 218.57 -370.64, 213.59 -383.17" stroke="#862e9c" stroke-width="4" fill="none"></path></g><g transform="translate(903.6990327380952 873.1752232142857) rotate(0 109.12561226343468 -192.22680428655207)"><path d="M204.03 -355.77 C205.8 -359.28, 207.44 -367.53, 213.75 -383.45 M203.95 -355.63 C207.83 -362.21, 208.61 -370.59, 213.59 -383.17" stroke="#862e9c" stroke-width="4" fill="none"></path></g></g><g stroke-linecap="round"><g transform="translate(1115.8028273809525 411.76897321428555) rotate(0 -160.20833601680187 -137.86651718801477)"><path d="M-0.28 -0.41 C-4.36 -42.52, 22.74 -211.66, -25.39 -253.02 C-73.52 -294.39, -239.09 -269.4, -289.04 -248.59 C-339 -227.78, -319.18 -148.5, -325.13 -128.17 M1.78 -1.67 C-2.29 -43.6, 22.85 -210.84, -25.78 -251.8 C-74.41 -292.76, -240.18 -268.17, -290.02 -247.42 C-339.85 -226.68, -318.82 -147.01, -324.79 -127.33" stroke="#862e9c" stroke-width="4" fill="none"></path></g><g transform="translate(1115.8028273809525 411.76897321428555) rotate(0 -160.20833601680187 -137.86651718801477)"><path d="M-335.06 -153.99 C-333.31 -149.98, -330.6 -142.61, -325.65 -126.35 M-333.5 -155.27 C-331.68 -145.34, -327.8 -133.23, -325 -128.09" stroke="#862e9c" stroke-width="4" fill="none"></path></g><g transform="translate(1115.8028273809525 411.76897321428555) rotate(0 -160.20833601680187 -137.86651718801477)"><path d="M-314.55 -153.51 C-317.43 -149.65, -319.36 -142.39, -325.65 -126.35 M-312.99 -154.79 C-319.08 -145.11, -323.12 -133.19, -325 -128.09" stroke="#862e9c" stroke-width="4" fill="none"></path></g></g><g stroke-linecap="round"><g transform="translate(539.4356398809523 544.0345982142856) rotate(0 -61.306810011093546 -148.91087935337382)"><path d="M1.06 -0.61 C-1.22 10.6, 11.34 62.9, -13.98 66.8 C-39.3 70.69, -130.86 88.46, -150.86 22.77 C-170.87 -42.92, -162.65 -264.19, -134.02 -327.35 C-105.39 -390.51, -7.73 -367.56, 20.92 -356.21 C49.57 -344.86, 35.39 -275.18, 37.87 -259.23" stroke="#e67700" stroke-width="2.5" fill="none" stroke-dasharray="8 10"></path></g><g transform="translate(539.4356398809523 544.0345982142856) rotate(0 -61.306810011093546 -148.91087935337382)"><path d="M27.32 -288.34 C30.4 -279.61, 32.66 -271.03, 39.59 -260.56" stroke="#e67700" stroke-width="2.5" fill="none"></path></g><g transform="translate(539.4356398809523 544.0345982142856) rotate(0 -61.306810011093546 -148.91087935337382)"><path d="M47.84 -287.82 C45.24 -279.05, 41.82 -270.61, 39.59 -260.56" stroke="#e67700" stroke-width="2.5" fill="none"></path></g></g><g stroke-linecap="round"><g transform="translate(582.2704613095239 540.2287946428569) rotate(0 2.1875406008213645 106.38565780532156)"><path d="M-0.4 -0.28 C0.22 35.31, 3.84 177.18, 4.77 212.98 M1.59 -1.48 C1.97 34.33, 3.39 178.55, 3.91 214.25" stroke="#e67700" stroke-width="4" fill="none"></path></g><g transform="translate(582.2704613095239 540.2287946428569) rotate(0 2.1875406008213645 106.38565780532156)"><path d="M-7.15 186.46 C-3.56 198.11, 3.13 206.69, 3.27 216.01 M-7.32 186.74 C-3.42 195.28, -0.16 206.16, 3.56 213.73" stroke="#e67700" stroke-width="4" fill="none"></path></g><g transform="translate(582.2704613095239 540.2287946428569) rotate(0 2.1875406008213645 106.38565780532156)"><path d="M13.37 186.21 C8.98 197.89, 7.7 206.57, 3.27 216.01 M13.2 186.5 C9.94 195, 6.04 205.97, 3.56 213.73" stroke="#e67700" stroke-width="4" fill="none"></path></g></g><g stroke-linecap="round"><g transform="translate(243.79947916666663 396.63504464285694) rotate(0 227.3669699560851 -161.7399984057601)"><path d="M0.16 -0.51 C13.09 -6.45, 60.94 13.42, 77.15 -35.93 C93.37 -85.29, 40.58 -253.65, 97.45 -296.66 C154.32 -339.66, 359.52 -324.09, 418.39 -293.98 C477.26 -263.87, 445.24 -145.89, 450.66 -115.99" stroke="#5c940d" stroke-width="2.5" fill="none" stroke-dasharray="8 10"></path></g><g transform="translate(243.79947916666663 396.63504464285694) rotate(0 227.3669699560851 -161.7399984057601)"><path d="M440.63 -143.57 C445.58 -138.28, 445.67 -127.57, 451.63 -117.62" stroke="#5c940d" stroke-width="2.5" fill="none"></path></g><g transform="translate(243.79947916666663 396.63504464285694) rotate(0 227.3669699560851 -161.7399984057601)"><path d="M461.14 -142.78 C460.62 -137.67, 455.24 -127.17, 451.63 -117.62" stroke="#5c940d" stroke-width="2.5" fill="none"></path></g></g><g transform="translate(674.1510416666667 13.977678571428385) rotate(0 52.5 21.5)"><text x="0" y="35" font-family="Cascadia, Segoe UI Emoji" font-size="36px" fill="#000000" text-anchor="start" style="white-space: pre;" direction="ltr">Store</text></g></svg>