<svg version="1.1" xmlns="http://www.w3.org/2000/svg" viewBox="0 0 997.9296875000001 986.3816964285711" width="1995.8593750000002" height="1972.7633928571422">
  <!-- svg-source:excalidraw -->
  
  <defs>
    <style>
      @font-face {
        font-family: "Virgil";
        src: url("https://excalidraw.com/Virgil.woff2");
      }
      @font-face {
        font-family: "Cascadia";
        src: url("https://excalidraw.com/Cascadia.woff2");
      }
    </style>
  </defs>
  <rect x="0" y="0" width="997.9296875000001" height="986.3816964285711" fill="#ffffff"></rect><g stroke-linecap="round" transform="translate(10 10) rotate(0 488.96484375000006 328.11104910714283)"><path d="M166.58 0.29 L830.89 0 L886.54 13.86 L899.24 19.82 L926.14 30.21 L945.12 52.6 L963.85 81.43 L972.55 106.56 L980.95 146.46 L979.11 508.16 L969.83 566.78 L959.95 576.08 L944.37 608.21 L927.78 621.42 L899.1 637.37 L868.87 650.14 L814.21 660.08 L146.52 651.64 L90.09 644.53 L60.51 635.71 L49.73 626.17 L31.88 607.77 L14.63 580.4 L4.78 550.38 L2.62 514.62 L2.12 166.78 L3.86 125.93 L11.7 95.11 L17.51 74.29 L29.6 52.72 L50.96 34.49 L76.69 14.14 L110.34 1.8 L160.68 3.67" stroke="none" stroke-width="0" fill="#eee"></path><path d="M164.06 0 M164.06 0 C391.51 5.41, 622.2 3.83, 813.87 0 M164.06 0 C362.62 -3.26, 561.94 -4.15, 813.87 0 M813.87 0 C920.54 2.46, 975.46 50.93, 977.93 164.06 M813.87 0 C919.97 3.41, 979.84 58.82, 977.93 164.06 M977.93 164.06 C976.64 231.57, 973.77 303.67, 977.93 492.17 M977.93 164.06 C977.81 241.11, 978.35 317.8, 977.93 492.17 M977.93 492.17 C978.97 603.71, 926.96 659.76, 813.87 656.22 M977.93 492.17 C980.32 605.89, 918.71 658.66, 813.87 656.22 M813.87 656.22 C634.17 655.64, 455.81 653.37, 164.06 656.22 M813.87 656.22 C581.31 651.94, 349.45 652.25, 164.06 656.22 M164.06 656.22 C54.68 653.21, -0.86 597.78, 0 492.17 M164.06 656.22 C53.05 653.42, -1.65 604.42, 0 492.17 M0 492.17 C-3.06 370.91, -2.77 254.97, 0 164.06 M0 492.17 C-2.75 384.84, -0.9 278.18, 0 164.06 M0 164.06 C3.25 56.04, 58.18 -2.63, 164.06 0 M0 164.06 C-2.77 51.53, 59.26 1.22, 164.06 0" stroke="#495057" stroke-width="2" fill="none"></path></g><g stroke-opacity="0.6" fill-opacity="0.6" stroke-linecap="round" transform="translate(238.89192708333337 476.7700892857141) rotate(0 80.7890625 27.03125)"><path d="M13.99 -1.9 L154.12 1.05 L156.22 3.82 L163.28 11.1 L162.25 45.15 L157.23 52 L149.33 54.35 L8.73 52.27 L1.18 49.28 L-0.68 42.5 L-0.51 10.69 L0.12 5.5 L6.01 2.52 L12.04 -0.72" stroke="none" stroke-width="0" fill="#fab005"></path><path d="M13.52 0 M13.52 0 C59.94 1.17, 105.58 -0.67, 148.06 0 M13.52 0 C54 1.49, 94.63 0.06, 148.06 0 M148.06 0 C159.02 0.23, 160.28 6.11, 161.58 13.52 M148.06 0 C155.04 0.07, 163.31 5.94, 161.58 13.52 M161.58 13.52 C162.39 22.28, 159.87 28.91, 161.58 40.55 M161.58 13.52 C160.95 19.99, 160.69 27.83, 161.58 40.55 M161.58 40.55 C162.08 50.6, 158.86 55.37, 148.06 54.06 M161.58 40.55 C160.52 48.34, 155.49 54.57, 148.06 54.06 M148.06 54.06 C118.93 55.75, 88.67 56.59, 13.52 54.06 M148.06 54.06 C116.12 53.61, 85.44 54.13, 13.52 54.06 M13.52 54.06 C5.69 55.59, 1.16 50.14, 0 40.55 M13.52 54.06 C3.39 55.58, 0.5 47.28, 0 40.55 M0 40.55 C0.86 33.94, 1.62 26.33, 0 13.52 M0 40.55 C-0.5 33.84, 0.77 29.66, 0 13.52 M0 13.52 C1.63 3.53, 5.92 0.69, 13.52 0 M0 13.52 C-1.87 3.01, 6.3 0.07, 13.52 0" stroke="#000000" stroke-width="1" fill="none"></path></g><g transform="translate(274.30208333333337 486.6021205357141) rotate(0 41 17)"><text x="41" y="27" font-family="Cascadia, Segoe UI Emoji" font-size="28px" fill="#000000" text-anchor="middle" style="white-space: pre;" direction="ltr">State</text></g><g stroke-opacity="0.6" fill-opacity="0.6" stroke-linecap="round" transform="translate(259.97935267857144 295.08928571428544) rotate(0 164.046875 27.03125)"><path d="M12.96 -1.82 L319.52 -1.02 L323.95 2.72 L326.39 8.82 L326.82 44.79 L323.44 50.09 L320.3 52.12 L315.92 55.05 L9.14 53.99 L5.84 52.58 L-0.61 48.32 L0.66 14.44 L2.3 8.54 L2.02 3.9 L7.25 0.88 L11.73 -2" stroke="none" stroke-width="0" fill="#228be6"></path><path d="M13.52 0 M13.52 0 C117.03 -0.63, 223.4 -0.82, 314.58 0 M13.52 0 C128.64 -0.92, 244.69 -0.73, 314.58 0 M314.58 0 C325.47 1.94, 327.74 5.71, 328.09 13.52 M314.58 0 C323.93 -2.23, 328.01 4.3, 328.09 13.52 M328.09 13.52 C327.15 20.02, 327.96 27.66, 328.09 40.55 M328.09 13.52 C328.34 21.57, 327.38 28.62, 328.09 40.55 M328.09 40.55 C329.66 50.28, 322.36 55.34, 314.58 54.06 M328.09 40.55 C328.41 47.74, 324.31 55.44, 314.58 54.06 M314.58 54.06 C201.37 56.3, 87.45 54.95, 13.52 54.06 M314.58 54.06 C208.82 55.19, 104.17 56.07, 13.52 54.06 M13.52 54.06 C5.14 53.66, -0.34 48.96, 0 40.55 M13.52 54.06 C6.2 54.6, 1.28 50.13, 0 40.55 M0 40.55 C1.89 33.01, 1.7 19.59, 0 13.52 M0 40.55 C0.42 32.97, 0.12 24.46, 0 13.52 M0 13.52 C-0.03 4.62, 2.79 -1.05, 13.52 0 M0 13.52 C-0.41 4.13, 4.07 1.82, 13.52 0" stroke="#000000" stroke-width="1" fill="none"></path></g><g transform="translate(367.94419642857144 304.79631696428544) rotate(0 57.5 17)"><text x="57.5" y="27" font-family="Cascadia, Segoe UI Emoji" font-size="28px" fill="#000000" text-anchor="middle" style="white-space: pre;" direction="ltr">Reducer</text></g><g stroke-linecap="round"><g transform="translate(319.69613607546637 364.1997767857141) rotate(0 1.559348206760717 51.90269364783808)"><path d="M-0.67 -1.16 C0.08 16.35, 2.8 87.46, 3.79 104.96 M1.17 0.85 C1.8 18, 1.99 85.73, 2.66 103.04" stroke="#e67700" stroke-width="4" fill="none"></path></g><g transform="translate(319.69613607546637 364.1997767857141) rotate(0 1.559348206760717 51.90269364783808)"><path d="M-10.06 74.46 C-4.91 83.78, -4.19 88, 1.32 101.79 M-9.08 74.35 C-4.16 83.81, -2.1 92.37, 2.64 103.23" stroke="#e67700" stroke-width="4" fill="none"></path></g><g transform="translate(319.69613607546637 364.1997767857141) rotate(0 1.559348206760717 51.90269364783808)"><path d="M10.46 74.07 C10.67 83.38, 6.44 87.69, 1.32 101.79 M11.44 73.97 C10.1 83.62, 5.89 92.29, 2.64 103.23" stroke="#e67700" stroke-width="4" fill="none"></path></g></g><g stroke-opacity="0.6" fill-opacity="0.6" stroke-linecap="round" transform="translate(275.02678571428567 766.1395089285711) rotate(0 175.6953125 105.12109375)"><path d="M0 0 C0 0, 0 0, 0 0 M0 0 C0 0, 0 0, 0 0 M-0.81 6.21 C1.94 4.82, 3.13 2.83, 4.57 -0.2 M-0.03 6.43 C0.69 4.63, 1.86 3.66, 4.82 0.51 M1.71 10.88 C2.83 9.57, 7.16 6.43, 12.18 1.19 M0.17 11.39 C4.24 7.41, 8.6 2.56, 10.68 -0.68 M-1.7 16.52 C4.9 10.8, 9.38 6.1, 16.92 -0.01 M-0.62 18 C2.58 15.36, 7.62 10.45, 15.33 -0.09 M0.58 23.28 C7.6 17.61, 14.79 8.32, 22.7 0.63 M0.41 23.59 C7.58 16.15, 13.83 8.74, 21.68 -0.95 M1.12 30.26 C6.31 21.28, 14.98 14.6, 26.82 -0.24 M-0.86 30.09 C9.5 18.52, 19.53 9.46, 26.44 0.2 M0.36 37.21 C4.99 30.01, 15.78 21.96, 33.81 1.7 M-0.65 36.16 C12 24.1, 21.72 11.45, 32.03 0.2 M0.26 42.38 C10.73 27.79, 23.34 14.51, 35.79 -1.48 M-0.37 42.92 C13.89 24.98, 28.29 9.01, 37.2 -0.33 M-0.48 50.5 C13.24 33.05, 27.94 16.35, 40.88 -0.13 M-0.67 48.79 C13.3 34.44, 25.9 19.2, 43.24 0.6 M1.34 55.4 C14.24 38.82, 26.9 26.76, 49.17 0.81 M0.06 53.8 C13.57 40.46, 26.29 25.49, 46.58 0.98 M1.39 59.81 C12.36 45.51, 27.82 31.14, 53.13 -0.42 M0.33 60.22 C18.19 38.42, 37.79 17.95, 52.97 0.34 M-0.45 65.9 C16.74 49.06, 34.39 31.06, 57.56 1.45 M-0.91 66.88 C12.16 50.5, 27.15 35.35, 58.16 0.4 M-0.84 71.35 C12.92 57.2, 25.82 42.41, 64.01 0.53 M-0.38 72.02 C19.09 50.69, 37.16 28.63, 64 0.62 M0.24 79.45 C19.39 58.62, 35.75 38.59, 70.74 -0.45 M0.51 79.16 C24.65 49.13, 48.86 20.86, 69.17 0.81 M1.26 83.6 C24.27 58.99, 46.86 31.16, 73.15 -0.29 M0.12 84.4 C25.34 55.04, 51.66 25.48, 75.26 0.74 M1.06 93.17 C26.3 61.02, 54.69 29.6, 79.72 0.49 M0.28 92.04 C19.05 69.44, 38.48 48.67, 79.48 0.72 M0.66 98.06 C27.57 69.99, 53.72 36.56, 84.44 1.42 M0.74 97.91 C29.02 66.35, 58.5 32.06, 84.81 -0.85 M0.48 102.72 C21.31 78.76, 40.49 59.55, 90.74 1.94 M0.15 103.24 C22.03 80.17, 44.23 54.27, 90.61 -0.8 M-0.46 110.28 C26.82 80.2, 51.63 50.32, 95.96 -0.81 M-0.01 109.46 C26.74 79.06, 53.17 48.54, 94.86 0.35 M-0.76 117.03 C19.44 91.35, 44.33 67.39, 99.25 -0.16 M0.03 114.59 C27.96 84.08, 56.88 51.27, 100.72 0.99 M-0.68 120.32 C30.37 89.76, 55.84 55.92, 106.03 -2.13 M-0.95 121.82 C25.7 91.15, 50.75 62.46, 106.76 0 M1.61 129.06 C31.04 92.25, 65.43 52.9, 111.92 -1.57 M0.29 127.82 C29.3 94.78, 58.03 59.78, 111.59 -0.62 M1.29 135.8 C34.58 97.45, 67.27 58.9, 114.52 0.34 M-0.59 133.62 C28.66 100.24, 57.39 65.84, 115.35 0.59 M0.06 138.8 C48.09 84.54, 95.45 31.61, 120.63 0.21 M-0.58 140.47 C26.66 108.2, 54.16 76.12, 121.66 -0.68 M-0.04 146.59 C42.68 99.24, 84.57 50.86, 127.48 -1.51 M1.18 145.11 C26.53 116.51, 52.94 86.06, 126.56 -0.53 M1.17 151.85 C39.74 106.37, 75.98 64.43, 132.5 -0.02 M-0.82 151.56 C51.13 91.68, 101.34 32.59, 132.96 0.31 M0.34 159.53 C45.36 108.47, 86.97 57.77, 139.04 -0.19 M-0.48 157.99 C49.83 102.85, 99.14 46.24, 138.4 0.36 M-0.92 165.86 C53.88 104.49, 103.86 45.71, 143.76 -1.04 M-0.21 165 C44.89 117.11, 86.97 66.92, 142.45 -0.36 M-0.95 169.98 C53.91 108.84, 110 46.49, 148.85 1.82 M0.01 170.9 C31.06 132.85, 63.84 96.73, 148.99 -0.51 M-1.02 175.22 C36.1 135.59, 72.77 91.12, 154.15 -1.66 M0.86 176.68 C46.54 121.72, 95.95 65.01, 154 0.68 M0.81 182.74 C53.55 122.29, 107.07 59.58, 158.19 0.65 M0.17 182.14 C41.62 136.97, 82.36 89.37, 158.5 0.57 M0.06 189.8 C48.32 132.65, 96.74 75.58, 164.38 1.07 M-0.14 188.74 C51.89 129.24, 101.68 72.56, 164.95 -0.5 M1.61 193.59 C50.48 139.19, 96.88 83.55, 168.42 -1.38 M0.58 195.64 C37.43 153.01, 72.3 111.62, 169.6 -0.38 M0.48 202.84 C69.36 119.45, 136.77 39.71, 174.45 0.44 M0.5 201.77 C59.51 130.13, 120.64 60.69, 174.29 -0.57 M0.46 208.36 C67.12 128.3, 134.37 52.47, 179.33 -1.21 M-0.08 207.51 C67.75 126.53, 135.35 49.11, 180.08 -0.5 M-0.15 213.04 C68.7 139.02, 132.08 64.43, 185.3 -1.56 M1.07 212.35 C44.24 163.04, 86.77 114.94, 186.2 0.06 M6.99 211.31 C80.47 128.73, 151.65 46.09, 190.9 0.25 M7.07 211.03 C67.68 145.21, 125.18 78.52, 190.34 0.51 M11.2 213.34 C58.33 160.37, 101.74 109.51, 197.19 0.01 M12.67 211.35 C77.95 137.35, 141.83 64.53, 196.71 0 M17.79 210.04 C61.29 159.65, 107.97 109.77, 201.84 0.25 M18.32 211.9 C81.27 139.28, 143.79 66.97, 200.84 0.08 M22.95 211 C83.17 143.87, 140.75 77.39, 208.34 -0.41 M23.27 212.34 C61.92 165.36, 102.49 118.21, 207.01 -0.9 M29.1 212.25 C73.98 159.62, 119.32 105.6, 210.99 -1.46 M27.62 210.89 C71.05 161.06, 113.73 111.41, 211.4 -0.48 M32.9 211.39 C83.71 149.53, 137.96 90.27, 216.33 1.04 M33.97 211.54 C102 135.18, 168.17 57.89, 218.03 -0.78 M37.48 212.11 C78.79 162.27, 119.92 115.82, 221.98 -1.11 M38.73 210.85 C100.96 141.96, 161.57 69.98, 221.94 0.27 M43.6 211.69 C81.85 164.61, 122.29 119.66, 228.89 0.78 M44.46 211.35 C82.66 165.85, 121.87 120.06, 228.13 0.36 M49.59 211.69 C89.82 163.85, 128.68 114.76, 232.45 1.47 M49.73 211.29 C92.63 159.64, 137.01 108.21, 233.24 -0.02 M54.73 211.58 C100.24 158.69, 145.05 108.26, 237.16 -0.73 M53.75 211.97 C93.43 166.41, 131.41 121.99, 237.76 0.7 M59.24 210.21 C133.97 128.67, 205.23 44.47, 244.83 1.29 M60.01 210.61 C117.68 142.95, 176.04 77.79, 243.16 -0.54 M64.58 211.73 C116.59 152.22, 170.31 92.26, 247.43 -0.51 M65.58 212.17 C121.46 147.66, 178.11 81.78, 248.35 0.46 M70.36 211.71 C128.99 143.81, 186.98 77.47, 255.56 -1.05 M70.94 211.55 C140.68 131.85, 209.74 52.76, 254.99 0.38 M74.67 212.26 C124.95 151.08, 178.41 91.67, 260.39 0.8 M75.35 211.55 C127.93 152.16, 178.88 93.08, 259.06 1.03 M79.52 211.98 C127.81 156.03, 175.6 100.28, 265.87 -0.91 M81.44 211.92 C120.82 167.17, 159.46 121.12, 264.5 -0.11 M85.18 211.19 C154.39 130.78, 224.94 48.26, 269.09 0.48 M86.24 211.33 C158.7 129.66, 231.93 47.46, 270.19 -0.29 M92.27 212.46 C156 139.65, 217.68 65.99, 277.14 -0.33 M91.38 211.57 C141.81 153.7, 193.25 94.43, 275.96 0.59 M96.45 212.14 C167.53 130.44, 235.02 52.98, 281.33 -0.91 M97.69 212.03 C160.5 139.18, 223.19 67.53, 280.25 0.38 M102.47 210.9 C170.25 135.18, 236.45 59.27, 286.33 -0.36 M101.41 211.55 C168.84 135.32, 234 59.9, 286.11 0.55 M107.42 210.51 C149.06 167.69, 186.74 121.45, 290.52 -1.07 M107.75 211.23 C166.29 144.05, 225.96 75.69, 291.29 0.49 M111.65 212.19 C178.37 133.32, 243.26 59.83, 296.7 0.44 M113.36 211.84 C172.38 141.06, 231.26 73.03, 297.17 0.25 M117.25 210.34 C177.14 140.11, 237.68 71.87, 301.7 -0.54 M118.37 211.93 C179.99 140.48, 241.7 69.12, 302.02 -0.51 M123.8 212.27 C171.12 155.85, 220.35 102.09, 307.07 -1.61 M122.64 211.37 C162.98 166.51, 202.35 120.6, 306.86 0.24 M129.84 210.53 C180.72 146.91, 237.32 87.68, 311.69 -1.18 M128.57 211.08 C184.95 146.1, 242.22 80.97, 313.2 -0.38 M134.7 211.84 C176.58 163.27, 218.37 112.99, 319.49 -1.56 M134.34 211.85 C192.55 145.83, 249.16 80.69, 318.34 0.37 M140.06 212.48 C209.44 133.66, 275.46 57.6, 322.82 1.5 M139.76 211.09 C210.46 131.72, 280.6 50.4, 323.75 0.48 M145.6 211.85 C208.99 138.48, 271.28 65.46, 328.53 0.39 M144.1 212.36 C192.8 156.85, 241.24 101.72, 328.8 -0.92 M150.6 212.45 C215.41 133.87, 280.43 58.84, 335.28 1.46 M150.41 211.38 C222.03 129.55, 292.63 48.53, 333.1 -0.12 M155.67 211.93 C203.24 153.59, 251.03 96.61, 338.12 0.43 M155.69 211.7 C221.86 132.67, 291.45 53.76, 339.35 0.22 M161.29 212.28 C226.05 138.3, 289.77 63.14, 345.62 -0.97 M161.37 210.7 C229.61 130.89, 298.44 52.26, 344.99 0.66 M166.51 211.92 C206.49 167.58, 243.41 123.84, 350.15 -0.44 M166.49 212.2 C223.87 142.85, 283.33 73.36, 348.99 0.85 M170.55 211.74 C238.09 132.47, 307.13 53.63, 353.06 0.86 M172.1 210.93 C226.75 144.29, 284.63 78.45, 353.14 0.75 M177.64 210.3 C242.41 134.56, 308.8 58.49, 352.91 6.53 M175.9 211.28 C217.33 162.88, 261.54 112.77, 353.04 7.17 M183.19 209.96 C241.33 141, 299.45 74.07, 352.03 12.84 M181.33 211.78 C246.99 136.1, 311.5 62.66, 352.99 14.55 M187.91 212.06 C236.78 155.97, 285.63 95.16, 352.77 19.83 M187.69 211.45 C225.42 169.42, 261.89 127.49, 354.18 20.36 M193.27 210.31 C248.26 147.79, 300.21 84.02, 354.1 27.17 M192.66 211.42 C235.24 164.88, 275.69 118.01, 353.38 26.54 M197.01 211.39 C247.63 154.24, 298.5 95.92, 355.45 31.89 M198.35 211.86 C229.96 173.34, 263.73 135.47, 353.11 32.34 M203.81 213.34 C245.06 166.56, 287.52 116.13, 352.32 39.39 M201.96 211.15 C238.1 170.82, 274.88 129.62, 353.16 39.21 M207.42 212.28 C252.13 166.2, 292.78 119.55, 353.85 44.59 M208.72 212.1 C256.11 155.04, 303.62 98.59, 352.53 45.1 M211.72 211.41 C250.13 166.88, 287.66 126.16, 354.75 49.16 M213.79 211.97 C259.29 159.02, 306.93 104.11, 354.13 50.66 M219.45 210.6 C251.49 170.48, 287.68 131, 352.86 57.04 M218.6 211.32 C267.69 154.23, 316.4 97.79, 353.25 56 M222.23 212.23 C257.6 176, 288.58 136.87, 355.4 63.68 M223.03 211.11 C273.61 155.25, 320.74 100.95, 354.38 63 M228.99 213.11 C259.89 175.56, 288.34 144.18, 354.35 68.14 M229.2 210.94 C257.4 178.73, 285.72 147.84, 354.19 68.21 M233.51 213.63 C279.42 158.65, 326.15 104.87, 354.97 74.79 M234.46 212.54 C264.96 173.36, 296.85 136.97, 353.38 75 M240.35 210.03 C264.21 185.35, 286.89 160.31, 353.47 79.05 M240.78 212.42 C279.02 166.79, 318.13 122.99, 353.85 80 M246.83 212.17 C269.53 181.52, 296.68 149.29, 352.16 87.49 M244.41 211.5 C286.03 166.87, 324.22 119.49, 352.53 87.79 M249.46 211.28 C277.81 178.41, 307.48 144.92, 355.24 92.37 M251 211.66 C274.47 184.32, 298.88 154.06, 352.93 93.3 M253.9 209.81 C295.53 167.79, 330.01 124.91, 352.76 99.48 M255.28 211.34 C287.62 176.53, 318.97 138.42, 353.8 98.34 M261.38 213.19 C294.67 173.18, 329.68 135.69, 352.33 106.68 M262.2 212.16 C294.12 173.73, 327.12 136.34, 352.62 106.01 M266.66 211.74 C285.22 189.49, 306.91 166.99, 354.43 111.97 M266.6 212.5 C285.6 192.34, 302.57 171.08, 353.51 111.47 M272.42 212.36 C297.19 183.41, 323.38 152.18, 353.57 119.59 M272.36 212.07 C295.6 184.22, 317.11 158.87, 354.22 117.86 M275.26 212.46 C303.43 181.46, 331.99 149.71, 352.08 124.49 M278.05 211.55 C305.42 178.91, 332.79 147.41, 354.58 123.6 M284.08 211.68 C308.67 178.84, 339.92 148.04, 354.06 130.26 M282.1 211.13 C299.99 193.07, 316.1 173.67, 354.2 129.98 M286.07 209.76 C313.65 179.56, 338.76 151.03, 355.14 137.58 M288.45 212.16 C302.18 195.27, 315.18 179.9, 352.94 136.53 M293.1 210.31 C312.85 188.04, 336.36 160.42, 351.75 142.37 M293.69 211.68 C307.79 194.1, 321.84 177.8, 353.84 142.82 M299.69 210.68 C318.32 187.57, 340.61 162.55, 352.26 147.8 M298.74 212.1 C310.71 197.54, 322.78 183.12, 353.11 147.39 M305.43 209.7 C320.63 190.57, 340.12 169.75, 352.18 155.64 M304.02 211.69 C321.44 192.1, 338.25 172.71, 352.89 154.72 M308.93 213.57 C327.99 192.82, 341.7 172.49, 353.33 162.26 M309.05 212.27 C322.51 195.87, 336.85 179.29, 353.29 160.19 M313.58 212.34 C327.11 196.63, 342.01 178.6, 353.07 164.8 M312.99 212.48 C328.88 196.11, 343.09 179.43, 353.22 165.86 M320.81 210.04 C326.51 201.48, 337.5 191.5, 354.1 173.61 M319.59 211.67 C329.12 200.28, 339.35 187.7, 352.98 171.81 M325.25 212.72 C336.48 197.07, 348.04 186.66, 354.38 178.14 M325.1 212.72 C331.35 205.28, 336.74 198.63, 353.86 177.78 M330.58 211 C334.77 205.52, 343.13 198.88, 352.91 183.49 M329.76 212.4 C334.61 207.1, 338.82 200.01, 352.66 184.47 M333.4 211.89 C341.96 203.89, 345.46 199.92, 354.96 192.46 M334.51 211.95 C340.75 205.77, 345.7 200.04, 352.64 191.4 M339.77 212.56 C345.42 205.92, 348.47 202.5, 355.17 197.6 M341.06 210.72 C344.8 206.82, 350.17 200.91, 353.42 197.72 M345.24 212.2 C349.87 209.21, 351.13 204.43, 353.8 203.43 M346.35 212.28 C348.39 207.97, 352.14 204.62, 354.21 202.75 M0.05 210.29 C0.05 210.29, 0.05 210.29, 0.05 210.29 M0.05 210.29 C0.05 210.29, 0.05 210.29, 0.05 210.29 M6.97 211.16 C4.99 208.96, 3.14 207.8, -1.02 204.12 M6.57 210.44 C5.07 208.95, 2.74 206.94, 0.03 204.2 M11.21 211.42 C10.08 208.07, 6.35 205.19, 1.58 199.5 M11.93 210.06 C7.57 206.65, 1.61 201.6, 0.79 199.31 M18.42 209.92 C11.85 206.42, 7.69 201.21, 1.59 193.74 M17.8 210.23 C11.55 205.46, 6.03 199.46, -1.06 193.2 M24.59 211.17 C13.96 203.41, 9.18 193.86, 0.23 189.88 M23.58 210.27 C14.36 201.1, 5.66 193.33, 0.94 189.54 M32.31 210.7 C21.97 200.72, 9.33 190.77, -1.41 185.67 M29.9 210.39 C22.96 203.31, 16.78 198.02, 1.03 183.8 M38.36 209.46 C24.24 201.13, 13.08 190.81, -1.64 176.9 M36.65 210.67 C25.45 200.29, 14.07 190.36, 0.84 177.67 M40.99 209.94 C33.76 200.12, 23.09 191.86, -0.41 175.18 M43.04 209.62 C26.97 197.29, 11.87 182.72, 0.79 172.6 M49.35 209.9 C40.34 203.44, 29.73 192.19, 0.66 169.12 M48.83 209.7 C32.37 194.6, 15.42 180.2, 0.67 167.74 M55.38 211.64 C35.75 195.06, 19.54 180.06, -0.51 161.42 M54.89 209.36 C33.32 191.83, 10.97 172.49, 0.64 162.82 M59.09 211.01 C38.14 191.67, 17.82 172.71, 0.66 157.42 M60.22 209.88 C47.85 198.16, 34.96 187.96, -0.95 157.48 M68.38 210.69 C49.58 194.71, 31.52 176.55, 0.67 150.17 M66.51 211.34 C46.79 193.38, 24.38 173.4, -0.59 152.12 M72.57 209.93 C56.73 198.24, 44.05 182.15, -0.93 144.98 M73.34 210.2 C56.85 196.84, 41.51 182.73, 0.25 147.25 M77.82 212.34 C47.93 183.05, 14.69 156.07, -0.29 140.48 M80.35 209.88 C58.96 192.38, 38.15 174.82, 0.06 142.3 M85.02 209.11 C58.6 185.69, 32.51 161.73, -2.14 137.23 M84.84 209.75 C52.47 181.28, 20.92 153.1, -0.84 135 M93.04 210.06 C72.45 189.13, 49.49 172.96, 1.44 130.7 M91.75 210.93 C71.75 193.07, 53.5 177.11, 0.67 130.23 M96.62 210.9 C62.9 182.27, 31.8 151.97, -1.82 123.91 M97.25 211.38 C63.43 180.77, 28.53 150.37, 0.34 125.31 M101.83 208.96 C75.86 186.92, 47.93 162.53, 0.87 120.44 M102.94 210.37 C69.77 180.16, 33.82 151.54, -0.5 120.92 M111.52 208.99 C80.67 182.62, 49.64 155.91, -1.56 113.02 M108.99 210.1 C79.34 183.84, 48.5 156.95, -1.04 114.36 M117.21 208.41 C75.92 176.65, 33.34 140.72, 1.26 108.6 M114.79 209.68 C86.85 186.51, 59.86 161.7, -0.08 110.47 M120.35 210.32 C72.64 166.78, 26.97 127.83, 0.23 104.87 M121.88 209.98 C82.49 176.93, 43.69 143.38, -0.15 104.93 M128.17 208.75 C93.49 177.9, 53.86 148.29, 0.06 99.37 M128.57 209.62 C88.14 174.15, 46.55 140.35, -0.55 99.11 M135.19 210.44 C91.4 172.96, 46.11 134.27, -1.62 94.02 M133.13 210.56 C90.96 171.45, 45.69 133.05, 0.49 93.42 M138.64 210.61 C99.66 174.99, 57.77 140.85, -1.02 88.2 M139.94 210.6 C85.17 163.58, 30.3 115.38, 0.76 88.15 M144.36 208.19 C87.18 161.89, 28.45 110.11, -1.06 83.32 M145.1 210.46 C116 183.76, 85.4 156.82, -0.04 82.83 M153.88 209.01 C114.67 177.09, 72.65 142.44, 1.71 76.04 M152.42 209.65 C112.02 174.31, 70.97 139.66, 0.57 77.12 M159.11 212.13 C118.79 179.19, 82.91 145.2, 1.74 74.36 M159 211.04 C103.37 161.92, 50.31 116.12, 0.74 72.48 M164.31 211.79 C108.26 160.06, 52.22 111.51, 0.83 66.44 M165.34 210.45 C130.7 180.59, 95.89 152.19, -0.84 66.43 M172.5 209.18 C136.38 179.61, 102.81 148.87, 0.3 63.62 M170.99 210.94 C113.87 161.25, 56.86 111.56, 0.76 62.16 M178.15 209.09 C107.66 150.03, 38.94 94.08, -1.29 56.89 M176.21 209.9 C137.22 177.08, 98.86 142.67, 0.02 56.63 M182.96 211.26 C112.95 151.58, 47.04 94.66, -1.17 51.56 M183.49 210.76 C126.93 164.3, 72.44 115.94, 0.79 51.5 M187.95 211.1 C141.08 172.38, 95.46 128.76, 0.84 44.61 M189.01 210.54 C149.52 174.98, 110.02 141.11, 0.69 45.81 M194.93 211.42 C137.22 159.74, 77.18 111.36, -0.33 41.51 M195.57 209.77 C124.87 147.97, 55.65 88.14, 0.55 40.07 M200.19 209.32 C139.65 157.3, 78.66 104.54, 1.1 34.5 M201.61 210.02 C122.25 142.32, 42.9 72, -0.91 35.53 M207.81 210.81 C144.17 151.51, 78.52 97.88, -0.39 28.81 M206.52 210.52 C133.87 147.13, 60.81 84.01, 0.32 30.32 M214.37 208.98 C141.29 146.08, 65.9 83.16, 0.43 24.17 M213.19 210.85 C149.7 154.06, 85.95 98.62, 0.41 24.99 M218.96 210.56 C135.74 133.72, 48.81 61.78, 1.26 18.64 M220.38 210.71 C147.39 148.55, 78.46 86.49, 0.06 20.33 M225.87 211.38 C163.58 156.59, 99.45 102.26, -1.65 15.42 M225.06 210.68 C140.74 135.5, 57.04 62.61, 0.42 13.52 M231.38 210.7 C165.7 152.47, 100.89 95.12, -0.94 8.45 M231.3 210.9 C180.8 164.89, 127.57 118.04, 0.19 9.61 M237.23 210.67 C185.44 167.16, 137.03 121.87, 0.29 3.63 M237.37 210.01 C155.16 138.96, 71.71 66.44, -0.9 2.8 M244.24 209.75 C144.57 127.75, 49.03 44.21, -0.4 -0.34 M244.08 209.94 C186.47 161.31, 127.29 110.5, 0.2 -1.21 M250.89 210.92 C159.06 130.38, 64.69 50.56, 6.28 0.49 M250.81 210.37 C174.75 145.48, 99.65 79.51, 6.81 -0.49 M254.97 209.39 C177.53 142.49, 100.21 74.42, 13.96 -1.75 M255.58 210.4 C199.26 159.86, 141.22 109.63, 12.67 -0.49 M262.26 209.9 C204.37 160.04, 145.61 110.34, 20.28 -0.68 M262.86 210.98 C210.95 165.03, 159.09 121.69, 19.82 -0.75 M266.72 210.76 C197.88 150.86, 130.74 92.43, 25.46 -0.26 M267.73 209.99 C192.31 145.12, 116.93 79.95, 25.24 -0.81 M274.09 210.4 C191.9 137.91, 109.64 63.86, 32.25 -1.34 M274.42 210.69 C188.25 134.85, 102.13 60.72, 31.67 -0.86 M282.12 210.99 C209.85 149.48, 137.89 88.16, 38.64 0.58 M280.51 209.93 C218.23 156.09, 155.38 101.19, 38.08 -0.32 M286.44 210.53 C224.97 155.86, 160.94 100.8, 42.39 -2.31 M286.08 210.22 C210.07 145.05, 135.32 80.83, 43.99 -1.76 M293.37 210.29 C238.88 164.17, 185.05 119.82, 49.67 -1.79 M292.45 210.3 C221.37 148.29, 148.99 85.96, 50.24 -1.51 M298.81 208.64 C231.92 150.32, 164.16 89.87, 55.27 -0.71 M298.18 209.31 C248.59 164.81, 198.7 121.59, 55.73 -1.54 M304.8 208.99 C233.9 150.71, 165.74 86.89, 60.63 -0.79 M304.41 210.38 C220.33 137.47, 135.79 62.93, 62.06 -0.98 M312.32 210.87 C234.06 144.77, 160.28 78.87, 67.97 -1.87 M310.85 210.87 C253.07 159.81, 195.65 109.38, 68.79 -1.03 M317.38 209.01 C266.1 164.12, 215.51 120.1, 75.06 -1.42 M317.32 209.61 C234.09 137.77, 149.7 64.15, 74.3 -1.15 M322.48 210.45 C235.95 133.82, 149.32 59.1, 79.66 -1.06 M323.13 210.69 C236.49 135.09, 149.58 59.31, 80.09 -1.57 M328.02 210.39 C271.22 160.33, 214.83 108.94, 86.24 -1.55 M329.41 210.26 C247.7 141.03, 166.28 69.35, 85.37 -1.9 M336.29 209.75 C270.55 155.81, 205.55 98.63, 91.93 -0.44 M335.34 210.46 C243.5 132.95, 151.84 52.16, 92.42 -0.35 M342.92 210.54 C271.78 148, 202.13 88.18, 98.78 -0.98 M341.85 210.48 C252.6 130.05, 161.64 51.4, 98.37 -0.68 M348.28 210.66 C258.37 132.64, 166.56 53.71, 104.34 -1.93 M346.83 210.22 C280.89 153.23, 215.03 96.76, 103.73 -0.74 M352.12 210.06 C291.12 153.74, 226.48 98.29, 110.3 0.12 M352.13 209.38 C298.55 161.8, 244.63 114.9, 110.38 -1.31 M352.64 205.22 C298.45 156.35, 241.74 109.16, 116.65 -2.39 M351.96 203.84 C287.03 149.86, 222.85 94.48, 116.95 -1.13 M351.65 198.88 C281.56 136.64, 210.64 77.62, 122.95 -1.87 M351.86 198.07 C290.59 146.05, 228.74 91.91, 123.34 -1.07 M351.22 192.75 C280.23 130.37, 206.73 67.2, 128.03 0.21 M353.24 192.8 C268.8 117.78, 183.86 45.65, 128.84 -0.58 M352.49 186.9 C278.92 124.61, 202.03 57.52, 136.27 -1.12 M351.62 188.41 C266.57 113.34, 180.46 36.74, 134.54 -0.93 M353.69 183.35 C280.96 120.63, 211.18 61.92, 141.41 -0.45 M353.04 183.15 C298.13 137.18, 245.82 91.1, 141.84 -0.74 M352.2 177.52 C281.45 114.34, 208.71 51.48, 145.95 -0.07 M352.31 176.55 C289.17 121.46, 225.23 66.99, 146.86 -1.53 M351.8 170.9 C302.12 129.33, 251.34 85.41, 151.74 -2.12 M352.46 172.27 C292.22 119.42, 233.77 67.77, 153.44 -1.27 M353 165.97 C300.51 122.11, 250.16 76.56, 158.54 -2.28 M351.86 166.24 C311.11 132.72, 271.23 97.74, 160.02 -0.03 M353.48 160.12 C296.71 111.63, 241.79 62.35, 165.66 -0.28 M351.67 161.76 C313.38 129.53, 275.75 95.17, 165.74 -1.61 M350.92 156.22 C295.66 105.94, 240.24 58.6, 171.81 -0.23 M352.19 156.01 C292.7 102.9, 232.2 52.36, 171 -1.42 M353.6 149.83 C315.54 121.91, 278.34 89.55, 175.67 -2.24 M352.24 150.57 C316.23 120.49, 279.46 88.67, 177.9 -1.02 M353.73 143.55 C309.12 109.07, 266.86 71.2, 183.26 -1.99 M352.15 146 C286.1 87.67, 219.93 31.19, 184.59 -0.94 M350.85 140.7 C298.08 94.74, 246.35 48.04, 191.71 -2.3 M353.04 140.69 C319.13 110.39, 282.99 79.1, 190.67 -0.53 M352.63 136.19 C302.25 87.25, 251.11 43.68, 195.65 -2.93 M351.46 133.8 C297.28 86.44, 243.64 38.49, 196.14 -0.51 M354.08 130.17 C309.49 93.66, 267.39 54, 203.06 -2.22 M352.42 129.47 C312.91 92.27, 270.45 55.39, 202.75 -1.56 M350.59 122.49 C302.42 79.67, 255.53 39.14, 209.69 -3.25 M351.75 124.14 C316.17 93.96, 280.61 63.47, 208.36 -0.8 M351.3 117.11 C298.45 70.34, 245.56 23.94, 214.89 -2.09 M352.9 119.21 C307.25 79.63, 262.03 40.45, 214.08 -0.32 M352.39 112.4 C306.51 73.66, 260.63 35.55, 221.85 -1.62 M353.01 114.59 C306.9 72.75, 258.23 32.7, 220.76 -1.52 M352.64 109.12 C329.23 88.51, 301.28 63.13, 227.02 -2.06 M353.01 109.15 C321.94 81.71, 291.69 55.62, 226.2 -1.5 M350.83 104.22 C305.07 63.11, 257.05 19.56, 231.55 -1.12 M352.8 104.31 C322.01 77.12, 291.68 49.5, 233.3 -0.45 M353.68 96.04 C313.76 64.53, 275.94 34.75, 239.24 -2.81 M351.84 98.05 C310.84 61.69, 269.05 26.29, 237.7 -0.71 M353.08 93.34 C314.68 57.78, 274.54 26.56, 243.71 -2.36 M352.16 93.69 C316.59 62.84, 280.12 31.37, 243.76 -0.87 M353.22 87.95 C323.44 62.29, 295.18 38.04, 250.34 0.96 M352.14 87.29 C330.83 68.03, 310.53 50.54, 252.09 -0.8 M351.82 83.75 C322.66 56.95, 293.73 30.29, 255.72 -0.34 M353.52 82.51 C326.2 58.82, 299.44 35.15, 255.83 -1.08 M351.27 77.26 C317.97 47.73, 284.74 16.79, 265.07 -0.19 M351.26 75.88 C322.4 50.44, 294.08 24.28, 263.73 -1.46 M351.89 70.72 C323.68 46.53, 293.03 19.92, 268.19 -1.76 M352.45 71.71 C336.46 55.8, 318.09 41.42, 268.83 -0.82 M351.06 64.62 C328.8 46.79, 308.6 26.18, 276.64 -0.4 M352.22 65.4 C331.38 48.98, 312.78 30.4, 275.39 -0.34 M352.41 62.8 C323.86 36.12, 294.35 11.33, 279.69 -2.39 M352.65 60.31 C329.68 40.02, 306.31 20.67, 281.5 -1.52 M353.04 56.99 C338.16 42.48, 321.02 31.48, 285.74 0.79 M352.67 55.07 C327.75 33.93, 300.35 9.82, 286.24 -0.59 M352.68 51.85 C328.18 29.45, 309.22 12.66, 293.77 0.3 M352.98 50.45 C335.01 34.34, 315.61 19.53, 293.91 0.02 M352.88 45.58 C332.25 26.82, 310.14 8.69, 299.27 -2.88 M351.92 44.71 C337.76 31.66, 323.39 18.89, 299.59 -1.29 M354.22 38.97 C343.37 29.94, 332.04 22.79, 305.44 -2.88 M352.42 40.39 C341.65 30.43, 329.75 20.12, 305.09 -1.45 M351.47 35.92 C338.39 22.34, 322.54 7.39, 313.11 -1.73 M351.89 33.74 C339.69 22.56, 327.35 13.24, 312.61 -1.73 M350.79 28.56 C342.2 20.68, 335.68 13.45, 316.18 -1.54 M353.11 29.48 C341.9 20.73, 331.44 11.26, 316.9 -1.18 M352.91 21.79 C347.6 19.06, 337.68 12.55, 323.09 -2.76 M352.16 24.2 C344.61 17.62, 337.42 10.13, 324.4 -1.07 M354.35 18.32 C344.79 13.53, 338.03 8.47, 328.7 -2.95 M353.31 19.18 C344.02 10.76, 334.75 3.49, 329.89 -0.86 M350.54 11.27 C347.15 6.88, 342.64 6.04, 335.53 0.27 M352.94 11.74 C346.27 7.64, 339.08 1.61, 335.43 -1.39 M352.83 8.69 C349.12 4.79, 345.23 2.12, 341.97 -1.26 M352.41 7.96 C348.83 5.15, 346.86 3.09, 342.83 -0.84 M353 2.33 C351.67 1.92, 350.45 1.27, 347.59 -1.36 M352.76 2.91 C351.29 1.94, 350.47 0.68, 348 -1.22" stroke="#e64980" stroke-width="0.5" fill="none"></path><path d="M0.88 0.84 C97.23 -2.59, 193.75 -1.97, 350.45 0.94 M-0.2 -0.36 C124.1 -2.01, 249.05 -1.9, 350.88 -0.13 M350.76 -0.65 C350.11 61.04, 348.83 123.97, 351.92 211.11 M351.6 -0.35 C351.6 44.53, 351.25 90.47, 350.81 210.41 M351.53 211.23 C267.39 208.29, 181.76 209.41, 0.61 209.5 M351.54 210.57 C262.72 209.46, 174.26 208.83, 0.07 210.07 M-1.25 208.61 C1.89 134.75, 1.84 61.72, 0.55 -1.54 M0.36 209.43 C-0.28 134.12, -0.28 58.84, -0.76 -0.12" stroke="#000000" stroke-width="1" fill="none"></path></g><g transform="translate(305.97767857142856 831.5217633928569) rotate(0 139.5 34)"><text x="139.5" y="27" font-family="Cascadia, Segoe UI Emoji" font-size="28px" fill="#000000" text-anchor="middle" style="white-space: pre;" direction="ltr">View</text><text x="139.5" y="61" font-family="Cascadia, Segoe UI Emoji" font-size="28px" fill="#000000" text-anchor="middle" style="white-space: pre;" direction="ltr">(SwiftUI / UIKit)</text></g><g stroke-opacity="0.6" fill-opacity="0.6" stroke-linecap="round" transform="translate(769.150855654762 426.49162946428544) rotate(0 80.7890625 27.03125)"><path d="M14.82 -1 L155.89 0.75 L157.73 1.55 L160.57 12.16 L162.45 45.58 L156.36 53.41 L149.86 52.83 L9.17 53.46 L1.38 49.56 L1.79 44.29 L-1.52 11.86 L2.64 7 L4.72 1.98 L13.98 -1.13" stroke="none" stroke-width="0" fill="#be4bdb"></path><path d="M13.52 0 M13.52 0 C55.08 -1.71, 95.38 -1.48, 148.06 0 M13.52 0 C57.31 -0.17, 102.12 0.5, 148.06 0 M148.06 0 C157.7 1.73, 159.9 3.17, 161.58 13.52 M148.06 0 C156.79 1.25, 161.95 6, 161.58 13.52 M161.58 13.52 C161.32 23.4, 162.75 30.11, 161.58 40.55 M161.58 13.52 C161.03 18.48, 162.21 24.92, 161.58 40.55 M161.58 40.55 C162 51.16, 155.96 55.86, 148.06 54.06 M161.58 40.55 C160.96 49.23, 156.79 53.84, 148.06 54.06 M148.06 54.06 C111.78 55.37, 80.21 52.07, 13.52 54.06 M148.06 54.06 C116.17 53.55, 84.4 55.16, 13.52 54.06 M13.52 54.06 C6.46 54.63, -0.38 49.81, 0 40.55 M13.52 54.06 C5.55 53.54, 0.7 48.47, 0 40.55 M0 40.55 C0.23 33.93, 1.78 29.17, 0 13.52 M0 40.55 C0.85 34.15, 0.71 29.05, 0 13.52 M0 13.52 C-1.75 5.36, 4.34 -0.42, 13.52 0 M0 13.52 C0.05 4.6, 4.21 1.42, 13.52 0" stroke="#000000" stroke-width="1" fill="none"></path></g><g transform="translate(799.5799851190478 434.6886160714283) rotate(0 49 17)"><text x="49" y="27" font-family="Cascadia, Segoe UI Emoji" font-size="28px" fill="#000000" text-anchor="middle" style="white-space: pre;" direction="ltr">Action</text></g><g stroke-linecap="round"><g transform="translate(641.2555803571428 873.1752232142857) rotate(0 109.35577260335202 -192.07749048516806)"><path d="M-0.49 -0.29 C32.61 -6.93, 163.38 23.12, 199.16 -41.02 C234.95 -105.16, 211.74 -328.1, 214.21 -385.13 M1.45 -1.49 C34.36 -8.36, 162.9 21.11, 198.3 -42.7 C233.71 -106.51, 211.18 -327.25, 213.88 -384.34" stroke="#862e9c" stroke-width="4" fill="none"></path></g><g transform="translate(641.2555803571428 873.1752232142857) rotate(0 109.35577260335202 -192.07749048516806)"><path d="M224.34 -356.13 C222.71 -364.74, 215.83 -374.82, 215.43 -384.98 M224.46 -356.47 C219.66 -367.84, 215.35 -377.01, 214.03 -384.43" stroke="#862e9c" stroke-width="4" fill="none"></path></g><g transform="translate(641.2555803571428 873.1752232142857) rotate(0 109.35577260335202 -192.07749048516806)"><path d="M203.83 -355.62 C209.3 -364.33, 209.53 -374.58, 215.43 -384.98 M203.94 -355.97 C206.96 -367.61, 210.47 -376.98, 214.03 -384.43" stroke="#862e9c" stroke-width="4" fill="none"></path></g></g><g stroke-linecap="round"><g transform="translate(853.3593750000001 411.76897321428555) rotate(0 -161.6937931628113 -137.60674226280287)"><path d="M0.09 0.82 C-4.2 -40.99, 21.38 -210.3, -26.75 -251.7 C-74.89 -293.11, -238.81 -268.4, -288.72 -247.59 C-338.64 -226.79, -320.2 -146.92, -326.24 -126.86 M-1.32 0.21 C-5.72 -41.87, 20.17 -211.82, -27.86 -253.45 C-75.9 -295.08, -239.76 -270.3, -289.53 -249.56 C-339.3 -228.82, -320.37 -149.5, -326.5 -128.99" stroke="#862e9c" stroke-width="4" fill="none"></path></g><g transform="translate(853.3593750000001 411.76897321428555) rotate(0 -161.6937931628113 -137.60674226280287)"><path d="M-334.22 -158.09 C-332.6 -151.43, -330.6 -146.6, -325.16 -128.51 M-335.99 -157.96 C-333.06 -148.43, -329.9 -137.38, -327.19 -128.42" stroke="#862e9c" stroke-width="4" fill="none"></path></g><g transform="translate(853.3593750000001 411.76897321428555) rotate(0 -161.6937931628113 -137.60674226280287)"><path d="M-313.71 -157.24 C-316.6 -150.76, -319.11 -146.11, -325.16 -128.51 M-315.48 -157.11 C-319.53 -148.03, -323.34 -137.27, -327.19 -128.42" stroke="#862e9c" stroke-width="4" fill="none"></path></g></g><g stroke-linecap="round"><g transform="translate(276.9921874999999 544.0345982142856) rotate(0 -62.28911289920083 -148.87139426922158)"><path d="M-0.09 -0.04 C-2.43 10.94, 10.52 62.96, -14.7 66.8 C-39.92 70.64, -131.25 88.86, -151.41 23.01 C-171.56 -42.84, -164.41 -265.25, -135.64 -328.29 C-106.86 -391.33, -7.34 -366.83, 21.24 -355.25 C49.82 -343.67, 33.2 -274.78, 35.85 -258.81" stroke="#e67700" stroke-width="2.5" fill="none" stroke-dasharray="8 10"></path></g><g transform="translate(276.9921874999999 544.0345982142856) rotate(0 -62.28911289920083 -148.87139426922158)"><path d="M26.72 -289.27 C28.74 -281.09, 30.96 -275.22, 36 -259.61" stroke="#e67700" stroke-width="2.5" fill="none"></path></g><g transform="translate(276.9921874999999 544.0345982142856) rotate(0 -62.28911289920083 -148.87139426922158)"><path d="M47.22 -288.41 C44.25 -280.45, 41.5 -274.8, 36 -259.61" stroke="#e67700" stroke-width="2.5" fill="none"></path></g></g><g stroke-linecap="round"><g transform="translate(319.82700892857144 540.2287946428569) rotate(0 2.008503327891219 106.52565034848243)"><path d="M-0.25 0.31 C0.62 35.64, 3.41 177.19, 4.27 212.57 M1.82 -0.57 C2.59 34.83, 2.73 177.96, 3.14 213.62" stroke="#e67700" stroke-width="4" fill="none"></path></g><g transform="translate(319.82700892857144 540.2287946428569) rotate(0 2.008503327891219 106.52565034848243)"><path d="M-6.76 184.92 C-6.4 192.18, -4.13 198.69, 3.78 212.05 M-6.53 184.55 C-4.52 195.04, -1.15 202.99, 3.19 213.54" stroke="#e67700" stroke-width="4" fill="none"></path></g><g transform="translate(319.82700892857144 540.2287946428569) rotate(0 2.008503327891219 106.52565034848243)"><path d="M13.76 184.8 C9.62 192.04, 7.39 198.58, 3.78 212.05 M13.99 184.43 C9.53 195, 6.41 202.99, 3.19 213.54" stroke="#e67700" stroke-width="4" fill="none"></path></g></g><g transform="translate(411.70758928571433 13.977678571428442) rotate(0 52.5 21.5)"><text x="0" y="35" font-family="Cascadia, Segoe UI Emoji" font-size="36px" fill="#000000" text-anchor="start" style="white-space: pre;" direction="ltr">Store</text></g></svg>